<svg xmlns="http://www.w3.org/2000/svg" viewBox="0 0 462 51"><g fill="none" fill-rule="evenodd"><path fill="#FFF" d="M30.8 35.7c0 .8.4 1.5 1.1 2 .7.6 1 1 1 1.4v.2c0 .5-.3.8-1 .8h-8.2c-.7 0-1.1-.3-1.1-.8v-.2c0-.3.3-.8 1-1.3.6-.6 1-1.3 1-2V22c0-.8-.4-1.5-1-2.2-.7-.7-1-1.1-1-1.3v-.2c0-.3.3-.6 1-1l5.3-2.5c.6-.3 1-.3 1.4-.1.4.2.5.5.5 1v20zM18.1 4c-1.7 0-3.1.8-4.3 2.4a10 10 0 0 0-1.8 6.2v2.7h6.8a.9.9 0 0 1 .6.2c.2.2.3.4.3.7v.8c0 .6-.3.8-.9.8H12v18c0 .8.4 1.5 1.2 2 .9.7 1.3 1.1 1.3 1.5v.2c0 .4-.3.7-1 .7H5c-.7 0-1-.3-1-.7v-.2c0-.4.4-.8 1-1.4.7-.6 1-1.3 1-2v-18H2c-.6 0-.9-.3-.9-.9v-.8a.8.8 0 0 1 .3-.7 1 1 0 0 1 .6-.2h4V13a10 10 0 0 1 3.7-8.2c2.5-2 5.6-3 9.4-3 3.2 0 5.8.8 7.8 2.3 2 1.4 3 3 3 4.5 0 .7-.3 1.3-.8 1.7-.4.4-1 .6-1.7.6-1 0-2-.3-2.7-1A7.6 7.6 0 0 1 23 7.4c-.3-.9-1-1.7-1.7-2.5A4.4 4.4 0 0 0 18 4z"/><path stroke="#FFF" stroke-width=".3" d="M30.8 35.7c0 .8.4 1.5 1.1 2 .7.6 1 1 1 1.4v.2c0 .5-.3.8-1 .8h-8.2c-.7 0-1.1-.3-1.1-.8v-.2c0-.3.3-.8 1-1.3.6-.6 1-1.3 1-2V22c0-.8-.4-1.5-1-2.2-.7-.7-1-1.1-1-1.3v-.2c0-.3.3-.6 1-1l5.3-2.5c.6-.3 1-.3 1.4-.1.4.2.5.5.5 1v20zM18.1 4c-1.7 0-3.1.8-4.3 2.4a10 10 0 0 0-1.8 6.2v2.7h6.8a.9.9 0 0 1 .6.2c.2.2.3.4.3.7v.8c0 .6-.3.8-.9.8H12v18c0 .8.4 1.5 1.2 2 .9.7 1.3 1.1 1.3 1.5v.2c0 .4-.3.7-1 .7H5c-.7 0-1-.3-1-.7v-.2c0-.4.4-.8 1-1.4.7-.6 1-1.3 1-2v-18H2c-.6 0-.9-.3-.9-.9v-.8a.8.8 0 0 1 .3-.7 1 1 0 0 1 .6-.2h4V13a10 10 0 0 1 3.7-8.2c2.5-2 5.6-3 9.4-3 3.2 0 5.8.8 7.8 2.3 2 1.4 3 3 3 4.5 0 .7-.3 1.3-.8 1.7-.4.4-1 .6-1.7.6-1 0-2-.3-2.7-1A7.6 7.6 0 0 1 23 7.4c-.3-.9-1-1.7-1.7-2.5A4.4 4.4 0 0 0 18 4z"/><path fill="#FFF" d="M62.4 35.7a3 3 0 0 0 1 2c.6.7.9 1.1.9 1.5v.2c0 .5-.4.7-1.2.7h-7.6c-.8 0-1.2-.2-1.2-.7v-.2c0-.4.3-.8 1-1.4.6-.6 1-1.3.9-2l-.5-10c-.3-5.8-2.1-8.6-5.5-8.6a5 5 0 0 0-4 1.7 7 7 0 0 0-1.5 4.7v12.2c0 .7.3 1.4 1 2 .7.6 1.1 1 1.1 1.4v.2c0 .5-.4.7-1.1.7h-8.2c-.7 0-1-.2-1-.7v-.2c0-.4.3-.8 1-1.4.7-.6 1-1.3 1-2v-14a2 2 0 0 0-.6-1.5 7.6 7.6 0 0 0-1.2-1c-.3-.3-.5-.6-.5-.9v-.2c0-.3.3-.6 1-.9l5-2.4c.6-.3 1-.3 1.2-.1.3.2.4.5.4 1v3.4a8 8 0 0 1 3.2-3.3c1.4-.8 3-1.2 4.8-1.2 2.7 0 5 .9 6.8 2.7 1.9 1.9 2.9 4.7 3.1 8.5l.7 9.8z"/><path stroke="#FFF" stroke-width=".3" d="M62.4 35.7a3 3 0 0 0 1 2c.6.7.9 1.1.9 1.5v.2c0 .5-.4.7-1.2.7h-7.6c-.8 0-1.2-.2-1.2-.7v-.2c0-.4.3-.8 1-1.4.6-.6 1-1.3.9-2l-.5-10c-.3-5.8-2.1-8.6-5.5-8.6a5 5 0 0 0-4 1.7 7 7 0 0 0-1.5 4.7v12.2c0 .7.3 1.4 1 2 .7.6 1.1 1 1.1 1.4v.2c0 .5-.4.7-1.1.7h-8.2c-.7 0-1-.2-1-.7v-.2c0-.4.3-.8 1-1.4.7-.6 1-1.3 1-2v-14a2 2 0 0 0-.6-1.5 7.6 7.6 0 0 0-1.2-1c-.3-.3-.5-.6-.5-.9v-.2c0-.3.3-.6 1-.9l5-2.4c.6-.3 1-.3 1.2-.1.3.2.4.5.4 1v3.4a8 8 0 0 1 3.2-3.3c1.4-.8 3-1.2 4.8-1.2 2.7 0 5 .9 6.8 2.7 1.9 1.9 2.9 4.7 3.1 8.5l.7 9.8z"/><path fill="#FFF" d="M80.5 38.6c1.4 0 2.7-.6 3.9-1.7a6.8 6.8 0 0 0 1.7-5v-8.3a7 7 0 0 0-2-4.8 6.1 6.1 0 0 0-4.7-2.2c-2 0-3.5.8-4.7 2.4a10.7 10.7 0 0 0-1.8 6.5c-.1 3.6.6 6.7 2 9.2 1.4 2.6 3.3 3.9 5.6 4zM92 35.8c0 .7.3 1.4 1 2 .6.7 1 1.1 1 1.4v.2c0 .5-.3.7-1 .7h-5.4c-.6 0-1-.3-1-1l-.2-1.8a8.8 8.8 0 0 1-7.3 3.3c-3.4 0-6.2-1.2-8.6-3.6a12.7 12.7 0 0 1-3.6-9.4 13 13 0 0 1 3.5-9.3 12 12 0 0 1 8.8-3.6c2.7 0 5 .9 6.9 2.6V7.6c0-.7-.2-1.2-.6-1.6a7 7 0 0 0-1.2-1c-.4-.3-.6-.6-.6-1 0-.5.3-.8.9-1l5.6-1.8C91.4.8 92 1 92 2.2v33.6z"/><path stroke="#FFF" stroke-width=".3" d="M80.5 38.6c1.4 0 2.7-.6 3.9-1.7a6.8 6.8 0 0 0 1.7-5v-8.3a7 7 0 0 0-2-4.8 6.1 6.1 0 0 0-4.7-2.2c-2 0-3.5.8-4.7 2.4a10.7 10.7 0 0 0-1.8 6.5c-.1 3.6.6 6.7 2 9.2 1.4 2.6 3.3 3.9 5.6 4zM92 35.8c0 .7.3 1.4 1 2 .6.7 1 1.1 1 1.4v.2c0 .5-.3.7-1 .7h-5.4c-.6 0-1-.3-1-1l-.2-1.8a8.8 8.8 0 0 1-7.3 3.3c-3.4 0-6.2-1.2-8.6-3.6a12.7 12.7 0 0 1-3.6-9.4 13 13 0 0 1 3.5-9.3 12 12 0 0 1 8.8-3.6c2.7 0 5 .9 6.9 2.6V7.6c0-.7-.2-1.2-.6-1.6a7 7 0 0 0-1.2-1c-.4-.3-.6-.6-.6-1 0-.5.3-.8.9-1l5.6-1.8C91.4.8 92 1 92 2.2v33.6z"/><path fill="#FFF" d="M137 14.7c.7 0 1 .2 1 .7v.2c0 .4-.3.9-1 1.5a7 7 0 0 0-1.5 2.1l-10 21.5a60 60 0 0 1-3.5 6.4c-.9 1.2-1.8 2-2.9 2.7a7 7 0 0 1-3.4.9 8 8 0 0 1-5.1-1.6c-1.4-1-2-2.3-2-3.5 0-.8.2-1.4.6-1.9.5-.5 1.1-.7 2-.7.7 0 1.4.3 1.8.8.5.6.9 1.2 1 2l1 1.9c.4.5 1 .8 1.6.8 1.9 0 3.8-2.6 6-7.7l-10.3-21.6c-.4-.7-1-1.4-1.7-2-.7-.7-1-1.2-1-1.6v-.2c0-.5.3-.7 1-.7h8.3c.6 0 .9.2.9.7v.2c0 .3-.2.6-.5 1-.3.3-.6.6-.7 1-.1.2 0 .8.3 1.7l7 15.7 6.5-15.2c.4-1 .4-1.7 0-2.1-.3-.4-.7-.8-1.3-1.1-.5-.4-.8-.7-.8-1v-.2c0-.5.3-.7 1-.7h5.8z"/><path stroke="#FFF" stroke-width=".3" d="M137 14.7c.7 0 1 .2 1 .7v.2c0 .4-.3.9-1 1.5a7 7 0 0 0-1.5 2.1l-10 21.5a60 60 0 0 1-3.5 6.4c-.9 1.2-1.8 2-2.9 2.7a7 7 0 0 1-3.4.9 8 8 0 0 1-5.1-1.6c-1.4-1-2-2.3-2-3.5 0-.8.2-1.4.6-1.9.5-.5 1.1-.7 2-.7.7 0 1.4.3 1.8.8.5.6.9 1.2 1 2l1 1.9c.4.5 1 .8 1.6.8 1.9 0 3.8-2.6 6-7.7l-10.3-21.6c-.4-.7-1-1.4-1.7-2-.7-.7-1-1.2-1-1.6v-.2c0-.5.3-.7 1-.7h8.3c.6 0 .9.2.9.7v.2c0 .3-.2.6-.5 1-.3.3-.6.6-.7 1-.1.2 0 .8.3 1.7l7 15.7 6.5-15.2c.4-1 .4-1.7 0-2.1-.3-.4-.7-.8-1.3-1.1-.5-.4-.8-.7-.8-1v-.2c0-.5.3-.7 1-.7h5.8z"/><path fill="#FFF" d="M153.7 38.1c1.7 0 3-.7 4.1-2.3 1-1.5 1.6-3.7 1.6-6.4 0-3.7-.8-6.8-2.4-9.4-1.6-2.6-3.6-3.9-6-3.9-2 0-3.4.8-4.5 2.3a10.8 10.8 0 0 0-1.7 6.4c0 3.4.8 6.5 2.5 9.2 1.7 2.8 3.8 4.1 6.4 4.1m-.8 2c-4.3 0-7.8-1.3-10.4-3.9-2.6-2.6-4-5.7-4-9.3a12 12 0 0 1 3.9-9.1 13 13 0 0 1 9.3-3.7c4 0 7.4 1.3 10 3.9 2.6 2.5 4 5.6 4 9.3 0 3.6-1.2 6.7-3.6 9.1a12.2 12.2 0 0 1-9.2 3.7"/><path stroke="#FFF" stroke-width=".3" d="M153.7 38.1c1.7 0 3-.7 4.1-2.3 1-1.5 1.6-3.7 1.6-6.4 0-3.7-.8-6.8-2.4-9.4-1.6-2.6-3.6-3.9-6-3.9-2 0-3.4.8-4.5 2.3a10.8 10.8 0 0 0-1.7 6.4c0 3.4.8 6.5 2.5 9.2 1.7 2.8 3.8 4.1 6.4 4.1zm-.8 2c-4.3 0-7.8-1.3-10.4-3.9-2.6-2.6-4-5.7-4-9.3a12 12 0 0 1 3.9-9.1 13 13 0 0 1 9.3-3.7c4 0 7.4 1.3 10 3.9 2.6 2.5 4 5.6 4 9.3 0 3.6-1.2 6.7-3.6 9.1a12.2 12.2 0 0 1-9.2 3.7z"/><path fill="#FFF" d="M193.9 34.7c0 1 .1 1.6.4 2 .3.5.6.7 1 .8l.8.3c.3.2.5.4.5.8 0 .9-1.4 1.3-4 1.3-1.5 0-2.6-.3-3.3-.9-.7-.6-1-1.6-1-3-1.5 2.8-4.2 4.1-8 4.1a9 9 0 0 1-7-2.9c-1.9-2-2.8-4.7-2.8-8.4v-9a3 3 0 0 0-1-2.2c-.6-.6-1-1-1-1.3v-.1c0-.6.4-.9 1-1l5.5-.9c1.2-.1 1.8.1 1.8.8v14.3c0 5.5 1.7 8.2 5.2 8.2a5 5 0 0 0 4-2c1.1-1.2 1.7-3 1.7-5V19.8c0-.8-.4-1.5-1-2.2-.7-.6-1-1-1-1.3v-.1c0-.6.2-.9.8-1l5.7-.9c1-.1 1.7.1 1.7.8v19.6z"/><path stroke="#FFF" stroke-width=".3" d="M193.9 34.7c0 1 .1 1.6.4 2 .3.5.6.7 1 .8l.8.3c.3.2.5.4.5.8 0 .9-1.4 1.3-4 1.3-1.5 0-2.6-.3-3.3-.9-.7-.6-1-1.6-1-3-1.5 2.8-4.2 4.1-8 4.1a9 9 0 0 1-7-2.9c-1.9-2-2.8-4.7-2.8-8.4v-9a3 3 0 0 0-1-2.2c-.6-.6-1-1-1-1.3v-.1c0-.6.4-.9 1-1l5.5-.9c1.2-.1 1.8.1 1.8.8v14.3c0 5.5 1.7 8.2 5.2 8.2a5 5 0 0 0 4-2c1.1-1.2 1.7-3 1.7-5V19.8c0-.8-.4-1.5-1-2.2-.7-.6-1-1-1-1.3v-.1c0-.6.2-.9.8-1l5.7-.9c1-.1 1.7.1 1.7.8v19.6z"/><path fill="#FFF" d="M214.1 14.1a5 5 0 0 1 3.6 1.3c.8.8 1.3 1.8 1.3 3.1 0 2.2-1 3.3-2.8 3.3-.8 0-1.4-.2-1.8-.7-.4-.4-.7-.8-.8-1.4a2.9 2.9 0 0 0-.7-1.4 2 2 0 0 0-1.6-.6c-1.2 0-2 .6-2.7 1.9a10 10 0 0 0-1 4.6v11c0 .8.5 1.5 1.3 2.1.8.6 1.2 1 1.2 1.4v.2c0 .4-.4.7-1.1.7h-8.2c-.8 0-1.1-.3-1.1-.7v-.2c0-.4.3-.8 1-1.4.6-.6 1-1.3 1-2v-14c0-.8-.4-1.5-1.2-2-.7-.6-1-1-1-1.4v-.1c0-.4.2-.8.9-1.1l5.1-2.4c1-.4 1.6-.1 1.6 1v4c1.2-3.5 3.5-5.2 7-5.2"/><path stroke="#FFF" stroke-width=".3" d="M214.1 14.1a5 5 0 0 1 3.6 1.3c.8.8 1.3 1.8 1.3 3.1 0 2.2-1 3.3-2.8 3.3-.8 0-1.4-.2-1.8-.7-.4-.4-.7-.8-.8-1.4a2.9 2.9 0 0 0-.7-1.4 2 2 0 0 0-1.6-.6c-1.2 0-2 .6-2.7 1.9a10 10 0 0 0-1 4.6v11c0 .8.5 1.5 1.3 2.1.8.6 1.2 1 1.2 1.4v.2c0 .4-.4.7-1.1.7h-8.2c-.8 0-1.1-.3-1.1-.7v-.2c0-.4.3-.8 1-1.4.6-.6 1-1.3 1-2v-14c0-.8-.4-1.5-1.2-2-.7-.6-1-1-1-1.4v-.1c0-.4.2-.8.9-1.1l5.1-2.4c1-.4 1.6-.1 1.6 1v4c1.2-3.5 3.5-5.2 7-5.2z"/><path fill="#FFF" d="M242.6 41c-2.2 0-3.9-.6-5.2-2-1.2-1.4-1.8-3.3-1.8-6V19.2h-3c-.5 0-.8-.3-.8-.9v-.7c0-.6.3-.9.9-.9h1.5a4 4 0 0 0 3.1-1.2c.8-.9 1.3-2 1.5-3.6.1-.7.5-1 1-1h.8c.6 0 1 .3 1 1v4.8h6.4l.6.3.3.6v.7c0 .6-.3.9-1 .9h-6.3V33c0 1.1.3 2 .8 2.7.5.6 1.2 1 2 1 2.1 0 3.3-.9 3.7-2.6a.9.9 0 0 1 .6-.5 1 1 0 0 1 .7 0c.2.2.3.4.3.7 0 1.8-.6 3.4-2 4.7-1.2 1.3-3 2-5 2"/><path stroke="#FFF" stroke-width=".3" d="M242.6 41c-2.2 0-3.9-.6-5.2-2-1.2-1.4-1.8-3.3-1.8-6V19.2h-3c-.5 0-.8-.3-.8-.9v-.7c0-.6.3-.9.9-.9h1.5a4 4 0 0 0 3.1-1.2c.8-.9 1.3-2 1.5-3.6.1-.7.5-1 1-1h.8c.6 0 1 .3 1 1v4.8h6.4l.6.3.3.6v.7c0 .6-.3.9-1 .9h-6.3V33c0 1.1.3 2 .8 2.7.5.6 1.2 1 2 1 2.1 0 3.3-.9 3.7-2.6a.9.9 0 0 1 .6-.5 1 1 0 0 1 .7 0c.2.2.3.4.3.7 0 1.8-.6 3.4-2 4.7-1.2 1.3-3 2-5 2z"/><path fill="#FFF" d="M262.5 18.1c-1.6 0-2.8.8-3.8 2.3a11 11 0 0 0-1.4 5.8c0 1.2.1 2.2.3 3.2l8.4-3.6c.9-.4 1.3-1 1.3-2 0-1.2-.4-2.5-1.4-3.8-.9-1.2-2-1.9-3.4-1.9m9.6 15.2c.2-.4.6-.5 1-.4.4 0 .6.4.6.9a8.3 8.3 0 0 1-3.2 5 10.5 10.5 0 0 1-7 2.3c-3.5 0-6.3-1.2-8.6-3.5a12.5 12.5 0 0 1-3.4-9.1 12 12 0 0 1 3.5-8.8c2.3-2.3 5.2-3.4 8.5-3.4 3 0 5.4.7 7 2.2a6.7 6.7 0 0 1 2.5 5c0 1.8-.9 3-2.6 3.5l-12.2 4.4a7.6 7.6 0 0 0 2.9 4 7 7 0 0 0 4.5 1.5c1.5 0 2.8-.3 4-1 1-.7 2-1.6 2.5-2.6"/><path stroke="#FFF" stroke-width=".3" d="M262.5 18.1c-1.6 0-2.8.8-3.8 2.3a11 11 0 0 0-1.4 5.8c0 1.2.1 2.2.3 3.2l8.4-3.6c.9-.4 1.3-1 1.3-2 0-1.2-.4-2.5-1.4-3.8-.9-1.2-2-1.9-3.4-1.9zm9.6 15.2c.2-.4.6-.5 1-.4.4 0 .6.4.6.9a8.3 8.3 0 0 1-3.2 5 10.5 10.5 0 0 1-7 2.3c-3.5 0-6.3-1.2-8.6-3.5a12.5 12.5 0 0 1-3.4-9.1 12 12 0 0 1 3.5-8.8c2.3-2.3 5.2-3.4 8.5-3.4 3 0 5.4.7 7 2.2a6.7 6.7 0 0 1 2.5 5c0 1.8-.9 3-2.6 3.5l-12.2 4.4a7.6 7.6 0 0 0 2.9 4 7 7 0 0 0 4.5 1.5c1.5 0 2.8-.3 4-1 1-.7 2-1.6 2.4-2.6z"/><path fill="#FFF" d="M287.6 39.2a4 4 0 0 0 3.3-1.5c.9-1 1.3-2.2 1.2-3.5l-.1-1.6a5 5 0 0 0-1.5-3.3c-.9-.9-2-1.3-3.3-1.3-1.4 0-2.6.5-3.5 1.3-.8 1-1.3 2.1-1.3 3.6a7 7 0 0 0 1.5 4.5c1 1.2 2.2 1.8 3.7 1.8zm10.7-3c0 .6.2 1.2.5 1.6.4.4.7.7 1 .8l.9.4.3.6c0 .9-1.3 1.3-4 1.3-1.4 0-2.4-.2-3-.6-.6-.5-1-1.2-1-2.4-1.4 2.1-3.8 3.2-7 3.2a11 11 0 0 1-7-2 6.5 6.5 0 0 1-2.5-5.5c0-2.4.8-4.2 2.6-5.5 1.7-1.3 3.9-2 6.6-2 2.4 0 4.3.6 5.8 1.7v-1c-.4-3-1-5.2-1.7-6.6A4 4 0 0 0 286 18c-1 0-1.9.3-2.6 1a5 5 0 0 0-1.4 2 7.3 7.3 0 0 1-1 2c-.5.7-1.1 1-1.8 1-.8 0-1.4-.2-1.8-.6-.5-.4-.7-1-.7-1.7 0-1.6.9-2.9 2.6-4 1.8-1 4-1.6 6.7-1.6 3.2 0 5.7 1 7.7 2.8 2 1.8 3 4.4 3.5 7.6l1 9.5z"/><path stroke="#FFF" stroke-width=".3" d="M287.6 39.2a4 4 0 0 0 3.3-1.5c.9-1 1.3-2.2 1.2-3.5l-.1-1.6a5 5 0 0 0-1.5-3.3c-.9-.9-2-1.3-3.3-1.3-1.4 0-2.6.5-3.5 1.3-.8 1-1.3 2.1-1.3 3.6a7 7 0 0 0 1.5 4.5c1 1.2 2.2 1.8 3.7 1.8zm10.7-3c0 .6.2 1.2.5 1.6.4.4.7.7 1 .8l.9.4.3.6c0 .9-1.3 1.3-4 1.3-1.4 0-2.4-.2-3-.6-.6-.5-1-1.2-1-2.4-1.4 2.1-3.8 3.2-7 3.2a11 11 0 0 1-7-2 6.5 6.5 0 0 1-2.5-5.5c0-2.4.8-4.2 2.6-5.5 1.7-1.3 3.9-2 6.6-2 2.4 0 4.3.6 5.8 1.7v-1c-.4-3-1-5.2-1.7-6.6A4 4 0 0 0 286 18c-1 0-1.9.3-2.6 1a5 5 0 0 0-1.4 2 7.3 7.3 0 0 1-1 2c-.5.7-1.1 1-1.8 1-.8 0-1.4-.2-1.8-.6-.5-.4-.7-1-.7-1.7 0-1.6.9-2.9 2.6-4 1.8-1 4-1.6 6.7-1.6 3.2 0 5.7 1 7.7 2.8 2 1.8 3 4.4 3.5 7.6l1 9.5z"/><path fill="#FFF" d="M344 36.4a3 3 0 0 0 1 2c.5.6.8 1 .8 1.3v.2c0 .5-.4.7-1 .7h-7.5c-.7 0-1-.2-1-.7v-.2c0-.3.3-.7.9-1.3.6-.6.9-1.2.8-2l-.5-9.3a13 13 0 0 0-1.5-6.5c-.9-1.3-2.2-2-3.8-2-1.4 0-2.6.6-3.5 1.7a6.6 6.6 0 0 0-1.6 4.2c.2.7.2 1.5.2 2.4v9.6c0 .7.3 1.3 1 2 .5.5.8 1 .8 1.2v.2c0 .5-.3.7-1 .7h-7.4c-.7 0-1-.2-1-.7v-.2c0-.3.2-.7.8-1.3.6-.6.9-1.2.9-2v-9.9c0-2.5-.5-4.4-1.5-5.8-1-1.4-2.3-2-3.8-2s-2.8.5-3.7 1.6a6.6 6.6 0 0 0-1.6 4.2v12c0 .7.4 1.3 1 2 .7.5 1 1 1 1.2v.2c0 .5-.3.7-1 .7H304c-.7 0-1.1-.2-1.1-.7v-.2c0-.3.3-.7 1-1.3.7-.6 1-1.2 1-2V23.3c0-.6-.2-1.1-.5-1.5a7.7 7.7 0 0 0-1.1-1c-.4-.3-.6-.6-.6-.9v-.1c0-.4.3-.7.9-1l5.1-2.3c.6-.2 1-.2 1.3 0 .2.2.4.5.4 1v2.9a8.3 8.3 0 0 1 3-3c1.2-.7 2.6-1 4.2-1a9 9 0 0 1 8.5 5 7.4 7.4 0 0 1 3-3.8 9 9 0 0 1 4.8-1.2c2.7 0 4.8.8 6.5 2.6 1.7 1.7 2.7 4.5 3 8.3l.6 9.2z"/><path stroke="#FFF" stroke-width=".3" d="M344 36.4a3 3 0 0 0 1 2c.5.6.8 1 .8 1.3v.2c0 .5-.4.7-1 .7h-7.5c-.7 0-1-.2-1-.7v-.2c0-.3.3-.7.9-1.3.6-.6.9-1.2.8-2l-.5-9.3a13 13 0 0 0-1.5-6.5c-.9-1.3-2.2-2-3.8-2-1.4 0-2.6.6-3.5 1.7a6.6 6.6 0 0 0-1.6 4.2c.2.7.2 1.5.2 2.4v9.6c0 .7.3 1.3 1 2 .5.5.8 1 .8 1.2v.2c0 .5-.3.7-1 .7h-7.4c-.7 0-1-.2-1-.7v-.2c0-.3.2-.7.8-1.3.6-.6.9-1.2.9-2v-9.9c0-2.5-.5-4.4-1.5-5.8-1-1.4-2.3-2-3.8-2s-2.8.5-3.7 1.6a6.6 6.6 0 0 0-1.6 4.2v12c0 .7.4 1.3 1 2 .7.5 1 1 1 1.2v.2c0 .5-.3.7-1 .7H304c-.7 0-1.1-.2-1.1-.7v-.2c0-.3.3-.7 1-1.3.7-.6 1-1.2 1-2V23.3c0-.6-.2-1.1-.5-1.5a7.7 7.7 0 0 0-1.1-1c-.4-.3-.6-.6-.6-.9v-.1c0-.4.3-.7.9-1l5.1-2.3c.6-.2 1-.2 1.3 0 .2.2.4.5.4 1v2.9a8.3 8.3 0 0 1 3-3c1.2-.7 2.6-1 4.2-1a9 9 0 0 1 8.5 5 7.4 7.4 0 0 1 3-3.8 9 9 0 0 1 4.8-1.2c2.7 0 4.8.8 6.5 2.6 1.7 1.7 2.7 4.5 3 8.3l.6 9.2z"/><path fill="#FFF" d="M389.7 36.4a3 3 0 0 0 1 2c.5.6.8 1 .8 1.3v.2c0 .5-.3.7-1 .7H383c-.7 0-1-.2-1-.7v-.2c0-.3.3-.7.9-1.3.6-.6.9-1.2.8-2l-.5-9.3a13 13 0 0 0-1.5-6.5 4.6 4.6 0 0 0-7.3-.3 6.6 6.6 0 0 0-1.5 4.2l.2 2.4v9.6c0 .7.3 1.3.8 2 .6.5 1 1 1 1.2v.2c0 .5-.4.7-1.1.7h-7.3c-.8 0-1.1-.2-1.1-.7v-.2c0-.3.2-.7.8-1.3.6-.6 1-1.2 1-2v-9.9c0-2.5-.6-4.4-1.6-5.8-1-1.4-2.2-2-3.8-2-1.5 0-2.7.5-3.7 1.6a6.6 6.6 0 0 0-1.6 4.2v12c0 .7.4 1.3 1 2 .8.5 1.1 1 1.1 1.2v.2c0 .5-.4.7-1 .7h-7.9c-.7 0-1-.2-1-.7v-.2c0-.3.3-.7 1-1.3.6-.6 1-1.2 1-2V23.3c0-.6-.3-1.1-.6-1.5a7.7 7.7 0 0 0-1.1-1c-.4-.3-.6-.6-.6-.9v-.1c0-.4.3-.7 1-1l5-2.3c.6-.2 1-.2 1.3 0 .2.2.4.5.4 1v2.9a8.3 8.3 0 0 1 3-3c1.2-.7 2.6-1 4.2-1 1.8 0 3.5.4 5 1.2a9 9 0 0 1 3.5 3.7 7.4 7.4 0 0 1 3-3.7 9 9 0 0 1 4.9-1.2c2.6 0 4.7.8 6.4 2.6 1.7 1.7 2.7 4.5 3 8.3l.6 9.2z"/><path stroke="#FFF" stroke-width=".3" d="M389.7 36.4a3 3 0 0 0 1 2c.5.6.8 1 .8 1.3v.2c0 .5-.3.7-1 .7H383c-.7 0-1-.2-1-.7v-.2c0-.3.3-.7.9-1.3.6-.6.9-1.2.8-2l-.5-9.3a13 13 0 0 0-1.5-6.5 4.6 4.6 0 0 0-7.3-.3 6.6 6.6 0 0 0-1.5 4.2l.2 2.4v9.6c0 .7.3 1.3.8 2 .6.5 1 1 1 1.2v.2c0 .5-.4.7-1.1.7h-7.3c-.8 0-1.1-.2-1.1-.7v-.2c0-.3.2-.7.8-1.3.6-.6 1-1.2 1-2v-9.9c0-2.5-.6-4.4-1.6-5.8-1-1.4-2.2-2-3.8-2-1.5 0-2.7.5-3.7 1.6a6.6 6.6 0 0 0-1.6 4.2v12c0 .7.4 1.3 1 2 .8.5 1.1 1 1.1 1.2v.2c0 .5-.4.7-1 .7h-7.9c-.7 0-1-.2-1-.7v-.2c0-.3.3-.7 1-1.3.6-.6 1-1.2 1-2V23.3c0-.6-.3-1.1-.6-1.5a7.7 7.7 0 0 0-1.1-1c-.4-.3-.6-.6-.6-.9v-.1c0-.4.3-.7 1-1l5-2.3c.6-.2 1-.2 1.3 0 .2.2.4.5.4 1v2.9a8.3 8.3 0 0 1 3-3c1.2-.7 2.6-1 4.2-1 1.8 0 3.5.4 5 1.2a9 9 0 0 1 3.5 3.7 7.4 7.4 0 0 1 3-3.7 9 9 0 0 1 4.9-1.2c2.6 0 4.7.8 6.4 2.6 1.7 1.7 2.7 4.5 3 8.3l.6 9.2z"/><path fill="#FFF" d="M405.3 39.2c1.3 0 2.5-.5 3.3-1.5.9-1 1.3-2.2 1.2-3.5l-.1-1.6a5 5 0 0 0-1.5-3.3c-.9-.9-2-1.3-3.3-1.3-1.4 0-2.6.5-3.5 1.3-.8 1-1.3 2.1-1.3 3.6a7 7 0 0 0 1.5 4.5c1 1.2 2.2 1.8 3.7 1.8zm10.7-3c0 .6.2 1.2.5 1.6.4.4.7.7 1 .8l.8.4c.3.2.4.4.4.6 0 .9-1.3 1.3-4 1.3-1.4 0-2.4-.2-3-.6-.6-.5-1-1.2-1-2.4-1.4 2.1-3.8 3.2-7 3.2a11 11 0 0 1-7-2 6.5 6.5 0 0 1-2.5-5.5c0-2.4.8-4.2 2.6-5.5 1.7-1.3 3.9-2 6.6-2 2.4 0 4.3.6 5.8 1.7l-.1-1c-.3-3-.8-5.2-1.6-6.6a4 4 0 0 0-3.7-2.1c-1 0-1.9.3-2.6 1a5 5 0 0 0-1.4 2 7.3 7.3 0 0 1-1 2c-.6.7-1.1 1-1.8 1-.8 0-1.4-.2-1.8-.6-.5-.4-.7-1-.7-1.7 0-1.6.9-2.9 2.6-4 1.8-1 4-1.6 6.7-1.6 3.2 0 5.7 1 7.7 2.8 2 1.8 3 4.4 3.4 7.6l1 9.5z"/><path stroke="#FFF" stroke-width=".3" d="M405.3 39.2c1.3 0 2.5-.5 3.3-1.5.9-1 1.3-2.2 1.2-3.5l-.1-1.6a5 5 0 0 0-1.5-3.3c-.9-.9-2-1.3-3.3-1.3-1.4 0-2.6.5-3.5 1.3-.8 1-1.3 2.1-1.3 3.6a7 7 0 0 0 1.5 4.5c1 1.2 2.2 1.8 3.7 1.8zm10.7-3c0 .6.2 1.2.5 1.6.4.4.7.7 1 .8l.8.4c.3.2.4.4.4.6 0 .9-1.3 1.3-4 1.3-1.4 0-2.4-.2-3-.6-.6-.5-1-1.2-1-2.4-1.4 2.1-3.8 3.2-7 3.2a11 11 0 0 1-7-2 6.5 6.5 0 0 1-2.5-5.5c0-2.4.8-4.2 2.6-5.5 1.7-1.3 3.9-2 6.6-2 2.4 0 4.3.6 5.8 1.7l-.1-1c-.3-3-.8-5.2-1.6-6.6a4 4 0 0 0-3.7-2.1c-1 0-1.9.3-2.6 1a5 5 0 0 0-1.4 2 7.3 7.3 0 0 1-1 2c-.6.7-1.1 1-1.8 1-.8 0-1.4-.2-1.8-.6-.5-.4-.7-1-.7-1.7 0-1.6.9-2.9 2.6-4 1.8-1 4-1.6 6.7-1.6 3.2 0 5.7 1 7.7 2.8 2 1.8 3 4.4 3.4 7.6l1 9.5z"/><path fill="#FFF" d="M429.8 41c-2.2 0-4-.6-5.2-2-1.3-1.4-1.9-3.3-1.9-6V19.2h-2.9c-.5 0-.8-.3-.8-.9v-.7c0-.6.3-.9.8-.9h1.6a4 4 0 0 0 3.1-1.2c.8-.9 1.3-2 1.5-3.6 0-.7.4-1 1-1h.7c.7 0 1 .3 1 1v4.8h6.4c.3 0 .5.1.7.3l.2.6v.7c0 .6-.3.9-.9.9h-6.3V33c0 1.1.2 2 .8 2.7.5.6 1.2 1 2 1 2 0 3.2-.9 3.6-2.6a.9.9 0 0 1 .6-.5 1 1 0 0 1 .7 0c.3.2.4.4.4.7 0 1.8-.7 3.4-2 4.7a7 7 0 0 1-5.1 2"/><path stroke="#FFF" stroke-width=".3" d="M429.8 41c-2.2 0-4-.6-5.2-2-1.3-1.4-1.9-3.3-1.9-6V19.2h-2.9c-.5 0-.8-.3-.8-.9v-.7c0-.6.3-.9.8-.9h1.6a4 4 0 0 0 3.1-1.2c.8-.9 1.3-2 1.5-3.6 0-.7.4-1 1-1h.7c.7 0 1 .3 1 1v4.8h6.4c.3 0 .5.1.7.3l.2.6v.7c0 .6-.3.9-.9.9h-6.3V33c0 1.1.2 2 .8 2.7.5.6 1.2 1 2 1 2 0 3.2-.9 3.6-2.6a.9.9 0 0 1 .6-.5 1 1 0 0 1 .7 0c.3.2.4.4.4.7 0 1.8-.7 3.4-2 4.7a7 7 0 0 1-5.1 2z"/><path fill="#FFF" d="M449.7 18.1c-1.6 0-2.9.8-3.8 2.3-1 1.5-1.4 3.4-1.4 5.8 0 1.2 0 2.2.3 3.2l8.4-3.6c.8-.4 1.3-1 1.3-2 0-1.2-.5-2.5-1.4-3.8-1-1.2-2-1.9-3.4-1.9m9.5 15.2c.3-.4.6-.5 1-.4.5 0 .6.4.6.9a8.3 8.3 0 0 1-3.1 5 10.5 10.5 0 0 1-7.1 2.3c-3.4 0-6.3-1.2-8.6-3.5a12.5 12.5 0 0 1-3.4-9.1 11.8 11.8 0 0 1 12.1-12.2c3 0 5.3.7 7 2.2a6.7 6.7 0 0 1 2.4 5c0 1.8-.8 3-2.6 3.5l-12.2 4.4a7.8 7.8 0 0 0 3 4c1.2 1 2.7 1.5 4.5 1.5 1.5 0 2.8-.3 4-1 1-.7 1.9-1.6 2.4-2.6"/><path stroke="#FFF" stroke-width=".3" d="M449.7 18.1c-1.6 0-2.9.8-3.8 2.3-1 1.5-1.4 3.4-1.4 5.8 0 1.2 0 2.2.3 3.2l8.4-3.6c.8-.4 1.3-1 1.3-2 0-1.2-.5-2.5-1.4-3.8-1-1.2-2-1.9-3.4-1.9zm9.5 15.2c.3-.4.6-.5 1-.4.5 0 .6.4.6.9a8.3 8.3 0 0 1-3.1 5 10.5 10.5 0 0 1-7.1 2.3c-3.4 0-6.3-1.2-8.6-3.5a12.5 12.5 0 0 1-3.4-9.1 11.8 11.8 0 0 1 12.1-12.2c3 0 5.3.7 7 2.2a6.7 6.7 0 0 1 2.4 5c0 1.8-.8 3-2.6 3.5l-12.2 4.4a7.8 7.8 0 0 0 3 4c1.2 1 2.7 1.5 4.5 1.5 1.5 0 2.8-.3 4-1 1-.7 1.9-1.6 2.4-2.6z"/></g></svg>