<svg xmlns="http://www.w3.org/2000/svg" fill="#4361EE" viewBox="0 0 60 25"><path d="M42 21.2c.1.5.3 1 .6 1.4.4.5.5.8.5 1v.2c0 .4-.2.5-.7.5h-5.7c-.5 0-.7-.1-.7-.5v-.1c0-.2.2-.6.6-1 .3-.6.5-1 .4-1.5l-.2-5.1a7.6 7.6 0 0 0-.6-3c-.3-.6-.8-1-1.4-1-.6 0-1.1.3-1.4.8a4 4 0 0 0-.5 2v6.3c0 .5.2 1 .6 1.4.5.5.7.9.7 1v.2c0 .4-.3.5-.7.5h-6.2c-.5 0-.7-.1-.7-.5v-.1c0-.2.2-.6.6-1 .5-.5.7-1 .7-1.5v-5.7c0-.4-.2-.7-.4-1a6 6 0 0 0-.8-.7c-.2-.2-.4-.4-.4-.6V13c0-.3.3-.5.7-.7l4-2c.4-.2.7-.2.9 0 .1.1.2.3.2.7v1.3c.8-1.4 2.2-2.1 4.1-2.1 1.5 0 2.7.4 3.7 1.4s1.7 2.4 1.8 4.5l.4 5zm10 2c.5 0 1-.2 1.3-.6.4-.5.6-1 .6-1.8v-5.5c0-1-.3-1.8-.8-2.5s-1.2-1.1-1.8-1.1c-1.4 0-2.2 1.2-2.3 3.5a15.1 15.1 0 0 0 1.3 6.4c.5 1 1 1.6 1.7 1.6zm6.7-2c0 .5.2 1 .6 1.4.4.5.6.8.6 1v.2c0 .3-.2.5-.7.5h-4c-.6 0-.8-.2-.8-.7v-.3a5 5 0 0 1-3.5 1.3c-1.9 0-3.5-.6-4.8-1.9a7 7 0 0 1-2-5.3 7 7 0 0 1 2-5.1c1.4-1.4 3-2 4.8-2 1.2 0 2.2.2 3 .8V7.3c0-.4-.2-.8-.4-1a6 6 0 0 0-.8-.7l-.4-.7c0-.4.3-.7.7-.8l4.5-1.4c.8-.2 1.2 0 1.2.7v17.8zM12 0c2.5 0 5.5 2.5 7 3.2 1.9.8 2.8 2.1 3 3.5 0 1.1-.3 1.9-.8 2.7-.4.6-1.3 1.2-2.8 1.2-1 0-1.7-.3-2.2-.7a4.8 4.8 0 0 1-1.6-2.6l-.9-3.8c-.1-.5-.5-1-.8-1.4a2.4 2.4 0 0 0-1.5-.4c-1.1 0-1.9.6-2.4 1.8A9.3 9.3 0 0 0 8.6 8v.4h3.7c.2 0 .4 0 .5.2a.7.7 0 0 1 .2.5v.7a.7.7 0 0 1-.2.6.7.7 0 0 1-.5.2H8.6v10c0 .6.3 1.2 1 1.7.5.6.8 1 .8 1.3 0 .5-.2.7-.8.7H2.4c-.5 0-.8-.2-.8-.6v-.1c0-.3.2-.7.7-1.3.4-.5.6-1 .6-1.6v-10H.8a.7.7 0 0 1-.8-.9v-.7c0-.2 0-.4.2-.5a.7.7 0 0 1 .6-.2h2.1V7c0-2 .9-3.7 2.5-5C7.1.7 9.3 0 12 0zm7.8 4.7c-1-.7-2.7-.4-3.5.6-1 1-.5 3.3.4 4 .7.7 2 .7 2.8.4-1.1-.7-.9-1.7-.5-2.2.6-.5 1.4-.7 2.2.3.2-1.3-.2-2.6-1.4-3.1z"/><path d="M23.5 21.2c0 .4.2 1 .6 1.4.4.5.6.8.6 1v.2c0 .3-.2.5-.6.5h-6.3c-.4 0-.7-.2-.7-.5v-.1c0-.3.2-.6.6-1.1.4-.5.6-1 .6-1.4v-5.5c0-.5-.2-1-.6-1.4-.4-.5-.6-.8-.6-1v-.1c0-.2.3-.5.7-.7l4.4-2c.4-.3.7-.3 1-.1.1 0 .3.3.3.6v10.2zM19 9.9s1-.1 1.5-1c.7-.8.7-1.6.7-1.6s-.3-.6-.9-.9c-.4-.2-1.5-.3-2.2.6-.7 1-.3 1.8 0 2.2l.9.7"/></svg>