<svg xmlns="http://www.w3.org/2000/svg" xmlns:xlink="http://www.w3.org/1999/xlink" viewBox="0 0 1440 470"><defs><path id="a" d="M0 0h1440v470H0z"/><path id="c" d="M0 0h79.7v229.8H0z"/><path id="e" d="M0 0c6 6.7 13 13.4 20.5 20.2 12.5 11.5 26.2 23.2 38.1 35 10.8 10.6 20 21.4 25.6 32.2a69.8 69.8 0 0 1 6.4 44c-2.1 12.3-9.6 21.6-14.6 34l-2.2 5.5c-2.5 6.2-3 12.8-2 19.2v.2c.8 5 5.5 11 10.2 13.9 3.6 2.2 8 3.7 12.4 4.3 3.3.4 6.5.6 9.6.4 6.8-.2 13-1.8 18.3-5.2a33.8 33.8 0 0 0 14.7-22.4 62.8 62.8 0 0 0-1.7-33.1 189.4 189.4 0 0 0-12-29.4c-7.7-15-17.8-28.5-28.1-42.8a922.9 922.9 0 0 1-4-5.6A53.3 53.3 0 0 1 78.8 39a41 41 0 0 1 8.4-23c-11.3.2-20.8-.6-29.5-2C46.9 12 37.3 9.1 27 6.3 18.8 4.1 10.1 1.8 0 0z"/><path id="g" d="M0 0h64.4v157H0z"/><path id="i" d="M15.4.1c-4.5.4-8.8 2.6-11.6 6a15.6 15.6 0 0 0-3 6.5 15.4 15.4 0 0 0 .3 8 15.6 15.6 0 0 0 3.3 5.7 16 16 0 0 0 2.3 2c3.5 2.7 8.2 3.9 12.7 3.1a16.6 16.6 0 0 0 6.4-2.4 16.1 16.1 0 0 0 3.8-3.4 15.6 15.6 0 0 0 1.7-2.5 15.3 15.3 0 0 0 1.8-6.3c.1-2.7-.4-5.4-1.7-7.8a16 16 0 0 0-4.6-5.6A16.5 16.5 0 0 0 22.2 1a16.8 16.8 0 0 0-5.5-1l-1.3.1"/><path id="k" d="M38 5.3c-5 3.1-9.2 7.5-11.7 12.9a28.1 28.1 0 0 0-2.1 14.6c1 11 5.6 22.5.9 32.2C20.9 73.6 7.7 78.8 3 87.2c-4 7.1-4.2 16.4.7 23.1 3.2 4.4 8 7.6 13.6 9.4a31.4 31.4 0 0 0 17 .7 65.5 65.5 0 0 0 5-1.4c8.8-3 16.5-7.7 23.2-13.1a108 108 0 0 0 20.9-23.2A76.8 76.8 0 0 0 90.3 70a68 68 0 0 0 4.1-13.5 56 56 0 0 0 .6-19A45.1 45.1 0 0 0 68.5 2.3C65.5 1 62.3.3 59 0a33 33 0 0 0-2.4-.1c-6.6.1-13 2-18.6 5.4"/><path id="m" d="M93.3 9.5a239 239 0 0 0-17 6.7A425 425 0 0 0 28 41.7c-1.3 6-4.2 12.5-7.5 19C12.9 75.5 2.6 91 0 104.7 4 98 8.7 91 14.1 84.2c29.4-37 79.5-73.4 130.7-47a97.6 97.6 0 0 1 10.7 6.4C172 55 166.8 76.5 180 92a29.7 29.7 0 0 0 1.7 2 53.5 53.5 0 0 0 33.2 13.6c6.6.2 13-1 18.5-4.1a28.4 28.4 0 0 0 7.2-6 33 33 0 0 0 7-14.1c2-8.7 1-18.4-2.7-27.3a91.8 91.8 0 0 0-1.7-4 70.3 70.3 0 0 0-12.5-18.3 96.4 96.4 0 0 0-24.8-18 137.3 137.3 0 0 0-15.4-7.2A123 123 0 0 0 145.2 0c-17.8 0-35 3.7-51.9 9.5"/><path id="o" d="M27.5.2c-1.4.3-2.7.7-4 1.4-3.5 2-5.6 5.9-7.8 9.4a93.5 93.5 0 0 0-2.4 4.3A121.8 121.8 0 0 0 .1 75a133.5 133.5 0 0 0 12.5 46.4c4 8.3 9 15.5 14.6 20.3A168.2 168.2 0 0 1 10.5 100a86.4 86.4 0 0 1 7.8-58.4 109.4 109.4 0 0 1 14.8-21.5c1.3-1.6 2.5-3.3 3.4-5 1.5-2.9 2.3-5.8 1.4-8.8-.3-1-.8-2-1.5-3A7.7 7.7 0 0 0 29.7 0c-.7 0-1.5 0-2.2.2"/><path id="q" d="M17.8.4A19.6 19.6 0 0 0 6.3 6.8a26 26 0 0 0-5.8 13A31.1 31.1 0 0 0 .3 27l.4 2.9a35 35 0 0 0 14.1 22.5A55.8 55.8 0 0 0 40 58.9c3 0 5.7-.4 8-1.3 3.3-1.3 5.7-3.5 6.5-7.2.7-3.6-.6-7.2-2-10.3a76.6 76.6 0 0 0-1.6-3L44.5 25l-5.1-9.7C37 11 34.5 6.4 30.7 3.4A16.8 16.8 0 0 0 29 2.2 15.7 15.7 0 0 0 17.8.4"/><path id="s" d="M0 .2h125.9v466.2H0z"/><path id="u" d="M75.9.2h-1.4a76 76 0 0 0-35 9.3 76 76 0 0 0-18.2 14A75.8 75.8 0 0 0 8.2 41.7a75.6 75.6 0 0 0 2.3 72.6 76 76 0 0 0 12.8 16.2 76.2 76.2 0 0 0 9 7.4 75.5 75.5 0 0 0 25.1 11.5 76.4 76.4 0 0 0 20 2.3 76 76 0 0 0 35.4-9.5 76 76 0 0 0 17.9-13.7 75.8 75.8 0 0 0 21.2-54 76 76 0 0 0-3-19.9A75.3 75.3 0 0 0 136.4 30a76.4 76.4 0 0 0-7.7-8.7A76 76 0 0 0 112 9.2a76 76 0 0 0-36-9z"/><path id="w" d="M10.8 0a12 12 0 0 0-8.2 4.2A10.5 10.5 0 0 0 .4 8.6a10.1 10.1 0 0 0 .2 5.5 10.5 10.5 0 0 0 2.4 4l1.6 1.3c2.5 1.9 5.9 2.6 9 2.2a12.2 12.2 0 0 0 4.6-1.7 11.4 11.4 0 0 0 2.8-2.4c.4-.5.8-1 1.1-1.7a10.2 10.2 0 0 0 1.3-4.3 10.2 10.2 0 0 0-1.1-5.4A11 11 0 0 0 19 2.3 12 12 0 0 0 15.7.7a12.4 12.4 0 0 0-4-.6h-.9"/><path id="y" d="M49.9 3.4a94 94 0 0 0-25.3 13.2 66.4 66.4 0 0 0-10 9A60.6 60.6 0 0 0 7 36 53 53 0 0 0 .7 52.9a47.1 47.1 0 0 0 12.6 41.5 32.5 32.5 0 0 0 27.6 8.5c5.3-1 10.3-3.4 14.1-7.3a26 26 0 0 0 6.3-12.4C63.7 73 63.2 61 70.3 54c6.2-6.2 19.3-6 26-11.8a21 21 0 0 0 6.4-21.1 28.1 28.1 0 0 0-9-13.4A30.1 30.1 0 0 0 79 .6a59.5 59.5 0 0 0-8.8-.6 64 64 0 0 0-20.3 3.4"/><path id="A" d="M22.4 27.9a56.4 56.4 0 0 1-7.8 37.5 71.2 71.2 0 0 1-9.5 12.2 55 55 0 0 0-1 1c-1 1-1.8 2.1-2.5 3.2a7.4 7.4 0 0 0-1.3 5.6c.2.7.4 1.3.8 2 1.3 2.1 3.5 2.7 5.7 2.4a8.6 8.6 0 0 0 2.5-.7c2.5-1.1 4-3.6 5.5-5.8a59.2 59.2 0 0 0 1.8-2.6 79.4 79.4 0 0 0 11.3-38 61.6 61.6 0 0 0-.2-6A87 87 0 0 0 22 14a40 40 0 0 0-8.5-14c3.9 8.8 7.5 18.5 8.9 28"/><path id="C" d="M58 .1a83.2 83.2 0 0 0-7.8.8A113.1 113.1 0 0 0 17.7 11 56 56 0 0 0 0 23.3c11.2-6 23.7-11.6 36.2-14.4a75.5 75.5 0 0 1 50.7 6.7 95 95 0 0 1 18.6 12.8 30 30 0 0 0 4.5 3c2.4 1.3 5 2 7.5 1.2.9-.3 1.8-.7 2.7-1.3 2.6-1.9 3.2-4.9 2.6-7.7a11.5 11.5 0 0 0-1.2-3.4c-1.7-3-5.1-4.9-8.2-6.7a79.5 79.5 0 0 0-3.7-2.1A106.2 106.2 0 0 0 58 .1"/><path id="E" d="M13.5 6.5A25 25 0 0 0 .8 21.9C-3 36.6 7.8 54.7 14 70l.6 1.4C18.5 80.8 20.8 94 25 105c3 7.8 7 14.6 13.2 18.5a41.2 41.2 0 0 0 9 4.1 47.3 47.3 0 0 0 21.3 1.8 48.8 48.8 0 0 0 13.4-4c5.3-2.3 10-5.6 14.3-9.6a62 62 0 0 0 15.7-23.7 66 66 0 0 0 3.7-29.3 71.7 71.7 0 0 0-10-30c-4-6.7-9.2-12.8-15.4-17.7a68 68 0 0 0-19.4-10A92.5 92.5 0 0 0 41.2 0C31 0 21.2 2 13.5 6.5"/><path id="G" d="M.1.1h38.6V162H0z"/><path id="I" d="M27 0c-3.4 0-6.4.8-9 2a27 27 0 0 0-9.7 8 51 51 0 0 0-2.8 4.1 37 37 0 0 0-4.8 13A40.6 40.6 0 0 0 0 33a81.5 81.5 0 0 0 4.7 29.7 158 158 0 0 0 13.7 28.4l.4.6c3.6 6.2 8.9 13.7 12 21 1.9 4.2 2.7 8.1 2.7 11.8 0 3.6-.7 7-2.1 10.2l13-1.1 13.3-1.1 10-.9c-3.8-1.1-7.6-3-11.1-5.6-11.3-8-20-21.9-23-33.3A50.3 50.3 0 0 1 36.8 61c2.7-6.1 6.1-11.8 8.8-18.7 2.1-5.6 4-11.5 4-17.2a26 26 0 0 0-1.5-8.9 23.8 23.8 0 0 0-5.8-9.6A21.1 21.1 0 0 0 33 1c-1.8-.7-3.7-1-5.8-1"/></defs><g fill="none" fill-rule="evenodd"><mask id="b" fill="#fff"><use xlink:href="#a"/></mask><use xlink:href="#a" fill="#4361EE"/><g mask="url(#b)"><path fill="#FFF" d="M706.2 139.2a.8.8 0 0 1-.4 0 44.4 44.4 0 0 1-20-19.8 43.2 43.2 0 0 1-3.7-24.5c1.8-14 9.2-28 16.3-41.4l3.5-6.6c8-15.5 15.1-32 12.3-47.7-4-22-25-40.4-47.2-60-10.1-8.8-20.6-18-29.5-27.7a.8.8 0 0 1 .1-1.1.8.8 0 0 1 1.1 0c8.8 9.6 19.3 18.8 29.4 27.7 22.4 19.7 43.6 38.3 47.6 60.8 3 16.1-4.2 33-12.4 48.7a790 790 0 0 1-3.5 6.6c-7 13.4-14.4 27.1-16.2 40.9-1 8.4.2 16.5 3.7 23.6 4 8 10.4 14.4 19.3 19a.8.8 0 0 1 .4.5v.6a.8.8 0 0 1-.8.4"/><g transform="translate(637 -90.2)"><mask id="d" fill="#fff"><use xlink:href="#c"/></mask><path fill="#FFF" d="M1.1.7a.5.5 0 0 0-.3.1.4.4 0 0 0 0 .7C9.7 11 20 20.3 30.2 29.2c22.3 19.6 43.3 38 47.3 60.2 2.8 15.7-4.2 32.3-12.3 47.8a826.5 826.5 0 0 1-3.5 6.7C54.6 157.3 47.2 171 45.4 185a43 43 0 0 0 3.8 24.4A44 44 0 0 0 69 229a.5.5 0 0 0 .6-.1.4.4 0 0 0-.2-.6A43.2 43.2 0 0 1 50 209a41.6 41.6 0 0 1-3.7-23.8c1.8-14 9.1-27.7 16.2-41v-.1l3.5-6.6c8.1-15.7 15.3-32.4 12.4-48.4-4-22.4-25.2-41-47.6-60.7-10-8.8-20.5-18-29.3-27.6A.4.4 0 0 0 1 .7m68.1 229a1.1 1.1 0 0 1-.5 0 44.7 44.7 0 0 1-20.1-20c-3.7-7.4-5-16-3.9-24.6 1.9-14.2 9.2-28 16.4-41.5a775.4 775.4 0 0 0 3.5-6.7c8-15.4 15-31.9 12.2-47.4-4-21.9-24.8-40.3-47-59.8C19.7 20.8 9.2 11.6.3 2A1.1 1.1 0 0 1 .3.3 1.1 1.1 0 0 1 2 .4C10.8 10 21.2 19.2 31.3 28 53.7 47.8 75 66.5 79 89c2.9 16.3-4.3 33.1-12.5 49a779 779 0 0 1-3.4 6.5l-.1.1c-7 13.3-14.3 27-16.1 40.7a41 41 0 0 0 3.6 23.5 43 43 0 0 0 19.1 18.9 1.1 1.1 0 0 1 .5 1.5 1.1 1.1 0 0 1-1 .6" mask="url(#d)"/></g><g transform="translate(647 -98)"><mask id="f" fill="#fff"><use xlink:href="#e"/></mask><path fill="#F297CD" d="M0 0c6 6.7 13 13.4 20.5 20.2 12.5 11.5 26.2 23.2 38.1 35 10.8 10.6 20 21.4 25.6 32.2a69.8 69.8 0 0 1 6.4 44c-2.1 12.3-9.6 21.6-14.6 34l-2.2 5.5c-2.5 6.2-3 12.8-2 19.2v.2c.8 5 5.5 11 10.2 13.9 3.6 2.2 8 3.7 12.4 4.3 3.3.4 6.5.6 9.6.4 6.8-.2 13-1.8 18.3-5.2a33.8 33.8 0 0 0 14.7-22.4 62.8 62.8 0 0 0-1.7-33.1 189.4 189.4 0 0 0-12-29.4c-7.7-15-17.8-28.5-28.1-42.8a922.9 922.9 0 0 1-4-5.6A53.3 53.3 0 0 1 78.8 39a41 41 0 0 1 8.4-23c-11.3.2-20.8-.6-29.5-2C46.9 12 37.3 9.1 27 6.3 18.8 4.1 10.1 1.8 0 0z" mask="url(#f)"/></g><path fill="#FFF" d="M799.9 79.6a.8.8 0 0 1-.8-1c7-36.8-25.4-76-36-88.8a132.6 132.6 0 0 1-23-38 31 31 0 0 1-2-14.7c1-5.5 4-10.4 8.8-13.8a.8.8 0 0 1 .6-.1.8.8 0 0 1 .5.3.8.8 0 0 1 .2.6.8.8 0 0 1-.3.5 19.5 19.5 0 0 0-8.2 12.8c-.6 4 0 8.4 1.9 13.8a131 131 0 0 0 22.6 37.6c10.8 13 43.5 52.6 36.5 90.1a.8.8 0 0 1-.8.7"/><g transform="translate(737.6 -77.2)"><mask id="h" fill="#fff"><use xlink:href="#g"/></mask><path fill="#FFF" d="M9.8.7a.4.4 0 0 0-.2 0A20.8 20.8 0 0 0 .9 14.5a29 29 0 0 0 2 14.4c4 11.6 12.1 25 22.8 38 10.7 12.8 43.1 52 36.2 89a.4.4 0 0 0 .4.6.4.4 0 0 0 .5-.4c7-37.4-25.7-76.8-36.4-89.8A131.4 131.4 0 0 1 3.7 28.5c-2-5.5-2.5-10-1.9-14a20 20 0 0 1 8.3-13 .5.5 0 0 0-.3-.8M62.3 157a1.1 1.1 0 0 1-.9-.5 1.1 1.1 0 0 1-.2-.9c6.9-36.6-25.4-75.7-36-88.5A132.9 132.9 0 0 1 2.2 29c-2-5.7-2.6-10.4-2-14.8a22 22 0 0 1 9-14c.2-.2.5-.2.8-.2a1.1 1.1 0 0 1 .5 2 19.2 19.2 0 0 0-8 12.6c-.6 4 0 8.3 1.8 13.6 4 11.5 12 24.8 22.6 37.5 10.8 13 43.6 52.7 36.5 90.5a1.1 1.1 0 0 1-1 .9" mask="url(#h)"/></g><path fill="#FFF" d="M754.3 103.9c4-8.7-2.1-14-7.7-15.7-4.6-1-16.5.9-16.8 11.1-5-4-7.1-11-4.3-20.6 3-10.8 15.3-19 25.9-16.7a21.2 21.2 0 0 1 17 21.3 20 20 0 0 1-14.1 20.6"/><path fill="#000" d="M728.3 98s4.4 5.3 12.5 6.7c9 1.5 14.6-1.2 14.6-1.2s3-5.5 2.8-10.3c-.2-4-3.5-12.4-12.5-14-10-1.7-14.6 5.3-16.1 9.3-1.7 4.6-1.3 9.4-1.3 9.4"/></g><g mask="url(#b)"><g transform="translate(26.1 124)"><mask id="j" fill="#fff"><use xlink:href="#i"/></mask><path fill="#FFF" d="M15.4.1c-4.5.4-8.8 2.6-11.6 6a15.6 15.6 0 0 0-3 6.5 15.4 15.4 0 0 0 .3 8 15.6 15.6 0 0 0 3.3 5.7 16 16 0 0 0 2.3 2c3.5 2.7 8.2 3.9 12.7 3.1a16.6 16.6 0 0 0 6.4-2.4 16.1 16.1 0 0 0 3.8-3.4 15.6 15.6 0 0 0 1.7-2.5 15.3 15.3 0 0 0 1.8-6.3c.1-2.7-.4-5.4-1.7-7.8a16 16 0 0 0-4.6-5.6A16.5 16.5 0 0 0 22.2 1a16.8 16.8 0 0 0-5.5-1l-1.3.1" mask="url(#j)"/></g><g fill="#F297CD"><path d="M56 440.9a1 1 0 0 1-1-1 121.7 121.7 0 0 1 28.2-82.6l12-14.3h.1c16.9-19.8 34.3-40.2 40.7-63 10-36-9-70.2-27.3-103.1l-1.3-2.5C87.9 139.3 72.2 101.8 89.6 66a1 1 0 1 1 1.7.8c-17 35-1.5 72 17.7 106.7l1.4 2.5c18.5 33.3 37.6 67.7 27.4 104.5-6.5 23.2-24 43.8-41 63.7-4.1 4.7-8.3 9.5-12.2 14.3A119.8 119.8 0 0 0 57 440a1 1 0 0 1-.3.7 1 1 0 0 1-.6.3z"/><path d="M214.6 308.2a1 1 0 0 1-1-1c.4-26.6-12.5-54.6-38.5-83a478 478 0 0 0-23.4-23.8 326.3 326.3 0 0 1-40.4-44.8 122.9 122.9 0 0 1-19.7-43.8 77 77 0 0 1 3.1-46.6 1 1 0 1 1 1.8.8 75.2 75.2 0 0 0-3 45.4 121 121 0 0 0 19.3 43C124.3 171 139 185.3 153 199c7.9 7.7 16 15.6 23.5 23.9 26.3 28.8 39.4 57.2 39 84.4a1 1 0 0 1-1 .9"/></g><g transform="translate(27.5 206.2)"><mask id="l" fill="#fff"><use xlink:href="#k"/></mask><path fill="#FA6A00" d="M38 5.3c-5 3.1-9.2 7.5-11.7 12.9a28.1 28.1 0 0 0-2.1 14.6c1 11 5.6 22.5.9 32.2C20.9 73.6 7.7 78.8 3 87.2c-4 7.1-4.2 16.4.7 23.1 3.2 4.4 8 7.6 13.6 9.4a31.4 31.4 0 0 0 17 .7 65.5 65.5 0 0 0 5-1.4c8.8-3 16.5-7.7 23.2-13.1a108 108 0 0 0 20.9-23.2A76.8 76.8 0 0 0 90.3 70a68 68 0 0 0 4.1-13.5 56 56 0 0 0 .6-19A45.1 45.1 0 0 0 68.5 2.3C65.5 1 62.3.3 59 0a33 33 0 0 0-2.4-.1c-6.6.1-13 2-18.6 5.4" mask="url(#l)"/></g><g transform="translate(-46 40)"><mask id="n" fill="#fff"><use xlink:href="#m"/></mask><path fill="#F297CD" d="M76.3 16.2A425.4 425.4 0 0 0 28 41.7c-1.3 6-4.2 12.5-7.5 19C12.9 75.5 2.6 91 0 104.7 4 98 8.7 91 14.1 84.2c29.4-37 79.5-73.4 130.7-47a97.6 97.6 0 0 1 10.7 6.4C172 55 166.8 76.5 180 92a29.7 29.7 0 0 0 1.7 2 53.5 53.5 0 0 0 33.2 13.6c6.6.2 13-1 18.5-4.1a28.4 28.4 0 0 0 7.2-6 33 33 0 0 0 7-14.1c2-8.7 1-18.4-2.7-27.3a91.8 91.8 0 0 0-1.7-4 70.3 70.3 0 0 0-12.5-18.3 96.4 96.4 0 0 0-24.8-18 137.3 137.3 0 0 0-15.4-7.2A123 123 0 0 0 145.2 0c-17.8 0-35 3.7-51.9 9.5a239 239 0 0 0-17 6.7z" mask="url(#n)"/></g><g transform="translate(70.5 368.4)"><mask id="p" fill="#fff"><use xlink:href="#o"/></mask><path fill="#F297CD" d="M27.5.2c-1.4.3-2.7.7-4 1.4-3.5 2-5.6 5.9-7.8 9.4a93.5 93.5 0 0 0-2.4 4.3A121.8 121.8 0 0 0 .1 75a133.5 133.5 0 0 0 12.5 46.4c4 8.3 9 15.5 14.6 20.3A168.2 168.2 0 0 1 10.5 100a86.4 86.4 0 0 1 7.8-58.4 109.4 109.4 0 0 1 14.8-21.5c1.3-1.6 2.5-3.3 3.4-5 1.5-2.9 2.3-5.8 1.4-8.8-.3-1-.8-2-1.5-3A7.7 7.7 0 0 0 29.7 0c-.7 0-1.5 0-2.2.2" mask="url(#p)"/></g><path fill="#FFF" d="M193.5 125c-5.7-10-14.3-10.4-19.8-6.2-4.2 3.9-7.5 14 2.4 21.5-6.4.7-19.7-.8-25.7-8.6-7.3-6.7-8.7-27.3 1-35.9a26 26 0 0 1 33-1.5c9.4 6.1 12.6 19.2 9 30.7"/><path fill="#000" d="M170.9 140.4s11 1.1 17-5c7-7 6.7-15.2 6.7-15.2s-3.4-6.4-7.8-9.3a17 17 0 0 0-20.6 2.2c-8 8-4.7 16.6-2 20.6 2.8 4.5 6.7 6.7 6.7 6.7"/></g><g mask="url(#b)"><g transform="translate(1360 341)"><mask id="r" fill="#fff"><use xlink:href="#q"/></mask><path fill="#FF7D00" d="M17.8.4A19.6 19.6 0 0 0 6.3 6.8a26 26 0 0 0-5.8 13A31.1 31.1 0 0 0 .3 27l.4 2.9a35 35 0 0 0 14.1 22.5A55.8 55.8 0 0 0 40 58.9c3 0 5.7-.4 8-1.3 3.3-1.3 5.7-3.5 6.5-7.2.7-3.6-.6-7.2-2-10.3a76.6 76.6 0 0 0-1.6-3L44.5 25l-5.1-9.7C37 11 34.5 6.4 30.7 3.4A16.8 16.8 0 0 0 29 2.2 15.7 15.7 0 0 0 17.8.4" mask="url(#r)"/></g><path fill="#FFF" d="M1310.6 527a.7.7 0 0 1-.6-.2c-8-11.4-14.3-22.7-19-33.7a130.6 130.6 0 0 1-9.3-30.8 107 107 0 0 1 5.2-54.4c5.4-15 14.2-30.3 26.8-46.8a584 584 0 0 1 36.3-41.5c14-15.1 27.3-29.4 37.4-43.8 18-25.8 21.9-68.8 10.1-112.3-5.8-21.6-15.3-42-27.2-59a129.5 129.5 0 0 0-46.5-41.8.6.6 0 0 1-.3-.4.6.6 0 0 1 0-.5.7.7 0 0 1 .4-.3.7.7 0 0 1 .6 0 130.8 130.8 0 0 1 47 42.2 194 194 0 0 1 27.4 59.5c11.8 43.8 7.8 87.2-10.4 113.3a429.1 429.1 0 0 1-37.5 44c-25 26.9-51 54.7-62.8 87.9-13.5 37.7-6 76.2 23 117.7a.6.6 0 0 1-.2.9.7.7 0 0 1-.4 0"/><g transform="translate(1280 61)"><mask id="t" fill="#fff"><use xlink:href="#s"/></mask><path fill="#FFF" d="M44.1.8a.4.4 0 0 0-.3.2.3.3 0 0 0 0 .2.3.3 0 0 0 .1.2 129 129 0 0 1 46.6 41.9c12 17 21.5 37.5 27.3 59.2 11.8 43.5 7.9 86.6-10.2 112.4-10.1 14.5-23.4 28.8-37.4 43.9-12.3 13.3-25 27-36.2 41.5A174.3 174.3 0 0 0 7.2 347 106.7 106.7 0 0 0 2 401.3c1.6 10 4.7 20.4 9.2 30.7 4.7 11 11.2 22.2 19 33.6.2.2.5.2.6 0a.3.3 0 0 0 .2-.1.3.3 0 0 0 0-.3c-29.1-41.6-36.7-80.1-23.1-118 11.9-33.1 37.8-61 62.9-88 14-15.1 27.3-29.4 37.5-44 18.1-25.9 22-69.2 10.3-112.9a190.3 190.3 0 0 0-27.4-59.4c-13.3-18.8-29-33-46.9-42a.4.4 0 0 0-.2-.1M30.6 466.4a1 1 0 0 1-.8-.5c-8-11.4-14.4-22.7-19.1-33.6a130.8 130.8 0 0 1-9.3-31 107.2 107.2 0 0 1 5.3-54.5A175 175 0 0 1 33.5 300c11.1-14.6 24-28.3 36.2-41.6 14-15.1 27.3-29.3 37.4-43.8 18-25.7 21.8-68.6 10.1-112a189 189 0 0 0-27.2-59A129.2 129.2 0 0 0 43.7 2a1 1 0 0 1-.5-.5.9.9 0 0 1 0-.7 1 1 0 0 1 .7-.5h.7a131 131 0 0 1 47 42.4 187.6 187.6 0 0 1 27.5 59.5c11.9 44 8 87.4-10.3 113.5a422.8 422.8 0 0 1-37.6 44c-25 27-50.9 54.8-62.7 87.9-13.5 37.6-6 76 23 117.4v.7a1 1 0 0 1-.4.6 1 1 0 0 1-.5.2" mask="url(#t)"/></g><g transform="translate(1329 -60)"><mask id="v" fill="#fff"><use xlink:href="#u"/></mask><path fill="#F297CD" d="M75.9.2h-1.4a76 76 0 0 0-35 9.3 76 76 0 0 0-18.2 14A75.8 75.8 0 0 0 8.2 41.7a75.6 75.6 0 0 0 2.3 72.6 76 76 0 0 0 12.8 16.2 76.2 76.2 0 0 0 9 7.4 75.5 75.5 0 0 0 25.1 11.5 76.4 76.4 0 0 0 20 2.3 76 76 0 0 0 35.4-9.5 76 76 0 0 0 17.9-13.7 75.8 75.8 0 0 0 21.2-54 76 76 0 0 0-3-19.9A75.3 75.3 0 0 0 136.4 30a76.4 76.4 0 0 0-7.7-8.7A76 76 0 0 0 112 9.2a76 76 0 0 0-36-9z" mask="url(#v)"/></g><g transform="translate(1323 371)"><mask id="x" fill="#fff"><use xlink:href="#w"/></mask><path fill="#FF7D00" d="M10.8 0a12 12 0 0 0-8.2 4.2A10.5 10.5 0 0 0 .4 8.6a10.1 10.1 0 0 0 .2 5.5 10.5 10.5 0 0 0 2.4 4l1.6 1.3c2.5 1.9 5.9 2.6 9 2.2a12.2 12.2 0 0 0 4.6-1.7 11.4 11.4 0 0 0 2.8-2.4c.4-.5.8-1 1.1-1.7a10.2 10.2 0 0 0 1.3-4.3 10.2 10.2 0 0 0-1.1-5.4A11 11 0 0 0 19 2.3 12 12 0 0 0 15.7.7a12.4 12.4 0 0 0-4-.6h-.9" mask="url(#x)"/></g><g transform="translate(1304.2 403.2)"><mask id="z" fill="#fff"><use xlink:href="#y"/></mask><path fill="#F297CD" d="M49.9 3.4a94 94 0 0 0-25.3 13.2 66.4 66.4 0 0 0-10 9A60.6 60.6 0 0 0 7 36 53 53 0 0 0 .7 52.9a47.1 47.1 0 0 0 12.6 41.5 32.5 32.5 0 0 0 27.6 8.5c5.3-1 10.3-3.4 14.1-7.3a26 26 0 0 0 6.3-12.4C63.7 73 63.2 61 70.3 54c6.2-6.2 19.3-6 26-11.8a21 21 0 0 0 6.4-21.1 28.1 28.1 0 0 0-9-13.4A30.1 30.1 0 0 0 79 .6a59.5 59.5 0 0 0-8.8-.6 64 64 0 0 0-20.3 3.4" mask="url(#z)"/></g><g transform="translate(1360 171)"><mask id="B" fill="#fff"><use xlink:href="#A"/></mask><path fill="#FFF" d="M22.4 27.9a56.4 56.4 0 0 1-7.8 37.5 71.2 71.2 0 0 1-9.5 12.2 55 55 0 0 0-1 1c-1 1-1.8 2.1-2.5 3.2a7.4 7.4 0 0 0-1.3 5.6c.2.7.4 1.3.8 2 1.3 2.1 3.5 2.7 5.7 2.4a8.6 8.6 0 0 0 2.5-.7c2.5-1.1 4-3.6 5.5-5.8a59.2 59.2 0 0 0 1.8-2.6 79.4 79.4 0 0 0 11.3-38 61.6 61.6 0 0 0-.2-6A87 87 0 0 0 22 14a40 40 0 0 0-8.5-14c3.9 8.8 7.5 18.5 8.9 28" mask="url(#B)"/></g></g><g mask="url(#b)"><g transform="translate(140 361)"><mask id="D" fill="#fff"><use xlink:href="#C"/></mask><path fill="#FF7D00" d="M58 .1a83.2 83.2 0 0 0-7.8.8A113.1 113.1 0 0 0 17.7 11 56 56 0 0 0 0 23.3c11.2-6 23.7-11.6 36.2-14.4a75.5 75.5 0 0 1 50.7 6.7 95 95 0 0 1 18.6 12.8 30 30 0 0 0 4.5 3c2.4 1.3 5 2 7.5 1.2.9-.3 1.8-.7 2.7-1.3 2.6-1.9 3.2-4.9 2.6-7.7a11.5 11.5 0 0 0-1.2-3.4c-1.7-3-5.1-4.9-8.2-6.7a79.5 79.5 0 0 0-3.7-2.1A106.2 106.2 0 0 0 58 .1" mask="url(#D)"/></g><path fill="#F297CD" d="m255.8 521.5-1.2-.7 13-23c6.7-12.9 13.8-26.3 17.3-42.2 4.6-21 4.4-42-.4-59-5.2-17.7-15-29.8-28.4-34.9a.7.7 0 1 1 .5-1.2c13.8 5.1 24 17.5 29.2 35.8 5 17.2 5 38.3.4 59.6-3.5 16-10.6 29.6-17.5 42.6l-13 23z"/><g transform="translate(148 384)"><mask id="F" fill="#fff"><use xlink:href="#E"/></mask><path fill="#FF7D00" d="M13.5 6.5A25 25 0 0 0 .8 21.9C-3 36.6 7.8 54.7 14 70l.6 1.4C18.5 80.8 20.8 94 25 105c3 7.8 7 14.6 13.2 18.5a41.2 41.2 0 0 0 9 4.1 47.3 47.3 0 0 0 21.3 1.8 48.8 48.8 0 0 0 13.4-4c5.3-2.3 10-5.6 14.3-9.6a62 62 0 0 0 15.7-23.7 66 66 0 0 0 3.7-29.3 71.7 71.7 0 0 0-10-30c-4-6.7-9.2-12.8-15.4-17.7a68 68 0 0 0-19.4-10A92.5 92.5 0 0 0 41.2 0C31 0 21.2 2 13.5 6.5" mask="url(#F)"/></g></g><g mask="url(#b)"><path fill="#FFF" d="M1151 481.7c.2 0 .4-.2.4-.4 1.2-7.2 6.2-12.7 11.6-18.6 3-3.4 6.1-6.8 8.4-10.6 7.4-12 6.4-26.2 4.2-36a173 173 0 0 0-7.2-22.3c-1.6-4.2-3.2-8.5-4.6-12.8a60 60 0 0 1-2.5-35.9 35.5 35.5 0 0 1 9.8-15.7c5-4.6 10.9-7.4 17.1-8.1a.4.4 0 0 0 0-.9c-6.5.8-12.6 3.7-17.6 8.4a35 35 0 0 0-10 16 60.8 60.8 0 0 0 2.4 36.4c1.4 4.4 3 8.7 4.6 13a172 172 0 0 1 7.1 22 47.8 47.8 0 0 1-4 35.4 76.3 76.3 0 0 1-8.4 10.5c-5.1 5.7-10.5 11.7-11.7 19a.4.4 0 0 0 .3.6.3.3 0 0 0 .1 0z"/><g transform="matrix(-1 0 0 1 1189 320)"><mask id="H" fill="#fff"><use xlink:href="#G"/></mask><path fill="#FFF" d="M21 73.7h.3l4.4-12.5a60.5 60.5 0 0 0 2.5-36.3 36 36 0 0 0-10-16A31 31 0 0 0 .9.8a.2.2 0 0 0-.1.1l.1.2c6.3.8 12.3 3.6 17.2 8.2 4.7 4.3 8.2 9.9 10 15.8 2.9 10 2.1 21.5-2.6 36-1.3 4.3-3 8.5-4.4 12.7zm-.2.2c-2.6 7.2-5.4 14.7-7.1 22.3-2.2 9.7-3.3 24 4 35.8 2.4 3.7 5.5 7.1 8.5 10.5 5.4 6 10.4 11.5 11.6 18.8a.2.2 0 0 0 .2 0 .2.2 0 0 0 .1-.1c-1.2-7.3-6.5-13.2-11.6-19-3-3.3-6.1-6.7-8.4-10.4a48 48 0 0 1-4-35.6c1.6-7.4 4.3-14.8 7-22h-.3v-.3zM38 162a.7.7 0 0 1-.7-.6c-1.2-7-6.2-12.6-11.5-18.4-3-3.4-6.1-6.9-8.5-10.6A49 49 0 0 1 13.2 96c1.7-7.6 4.5-15 7.2-22.3 1.5-4.2 3.1-8.5 4.5-12.8a59.7 59.7 0 0 0 2.5-35.7 35.2 35.2 0 0 0-9.7-15.6 30.1 30.1 0 0 0-17-8A.7.7 0 0 1 .1.8.7.7 0 0 1 1 .2c6.5.7 12.6 3.6 17.7 8.4a36.6 36.6 0 0 1 10.2 16.2 61 61 0 0 1-2.6 36.5c-1.4 4.4-3 8.7-4.5 13-2.7 7.1-5.5 14.5-7.2 22a47.5 47.5 0 0 0 4 35.2c2.3 3.7 5.4 7 8.4 10.4 5.2 5.8 10.5 11.7 11.8 19.2a.7.7 0 0 1-.6.8.8.8 0 0 1-.1 0z" mask="url(#H)"/></g><g transform="matrix(-1 0 0 1 1227 340)"><mask id="J" fill="#fff"><use xlink:href="#I"/></mask><path fill="#FA6A00" d="M27 0c-3.4 0-6.4.8-9 2a27 27 0 0 0-9.7 8 51 51 0 0 0-2.8 4.1 37 37 0 0 0-4.8 13A40.6 40.6 0 0 0 0 33a81.5 81.5 0 0 0 4.7 29.7 158 158 0 0 0 13.7 28.4l.4.6c3.6 6.2 8.9 13.7 12 21 1.9 4.2 2.7 8.1 2.7 11.8 0 3.6-.7 7-2.1 10.2l13-1.1 13.3-1.1 10-.9c-3.8-1.1-7.6-3-11.1-5.6-11.3-8-20-21.9-23-33.3A50.3 50.3 0 0 1 36.8 61c2.7-6.1 6.1-11.8 8.8-18.7 2.1-5.6 4-11.5 4-17.2a26 26 0 0 0-1.5-8.9 23.8 23.8 0 0 0-5.8-9.6A21.1 21.1 0 0 0 33 1c-1.8-.7-3.7-1-5.8-1" mask="url(#J)"/></g><path fill="#FFF" d="M1209.3 476.5a.5.5 0 0 0 .4-.8c-5.2-6-5.8-15.1-1.7-24.2a82.7 82.7 0 0 1 10-15.6l4.8-6.6 2.2-3.2a88 88 0 0 0 14.7-28 .5.5 0 0 0-.7-.5.5.5 0 0 0-.3.3c-2.7 10.9-9.6 20.6-14.6 27.7a346 346 0 0 0-2.2 3c-1.5 2.3-3.2 4.5-4.8 6.7-3.7 5-7.5 10.1-10 15.7-4.3 9.6-3.6 19 1.8 25.3a.5.5 0 0 0 .4.2"/><path fill="#FFF" d="M1239.2 397.8a.2.2 0 0 1 .2.3 86.5 86.5 0 0 1-14.7 27.9 328.8 328.8 0 0 0-2.2 3.1l-4.7 6.6c-3.8 5-7.6 10-10 15.7-4.2 9.2-3.6 18.3 1.6 24.4a.2.2 0 0 1 0 .4.2.2 0 0 1-.3 0c-5.3-6.3-6-15.6-1.8-25a85.4 85.4 0 0 1 10-15.7l4.9-6.7 2.1-3c5-7.2 12-16.9 14.7-27.8a.2.2 0 0 1 .1-.1.2.2 0 0 1 .1 0m-30 78.9a.8.8 0 0 0 .8-.8.8.8 0 0 0-.1-.5c-5.1-6-5.7-14.9-1.7-24a88.1 88.1 0 0 1 10-15.4 204.3 204.3 0 0 0 7-9.8c5-7.2 12-17 14.8-28a.8.8 0 0 0-1.5-.4c-2.8 10.8-9.6 20.4-14.6 27.5l-2.2 3.1c-1.5 2.3-3.2 4.5-4.8 6.6-3.7 5-7.6 10.2-10.1 15.8-4.3 9.6-3.6 19.2 1.9 25.6.1.2.3.3.6.3m-12-133.2c6.9 5 4.4 12 .8 15.7-3.3 2.7-11.7 5.4-16.4-2.5-2.2 5.3-.7 13.5 4.6 18.6 4.4 6 19.6 8.8 27 2.4a19.2 19.2 0 0 0 4.1-24.3 18 18 0 0 0-20.2-9.9"/><path fill="#000" d="M1180.9 359.9s.8-6.9 6.6-11.6c6.4-5.1 12.2-5 12.2-5s4.6 2.6 6.5 6.5a14 14 0 0 1-3.8 16.4c-7.1 5.8-13.8 2.3-16.7-.2a19 19 0 0 1-4.8-6.1"/></g></g></svg>