<svg xmlns="http://www.w3.org/2000/svg" viewBox="0 0 706 96"><g fill="none" fill-rule="evenodd"><path fill="#FFF" d="M132.7 65.6c0 1.5.7 3 1.7 4.4 1 1.5 1.5 2.6 1.5 3.3v.4c0 1.1-.7 1.7-2.1 1.7h-18.1c-1.5 0-2.2-.6-2.2-1.7v-.4c0-.7.6-1.8 1.7-3.2 1.2-1.5 1.7-3 1.6-4.5l-1-15.9c-.2-4.3-.8-7.5-1.7-9.3a4.7 4.7 0 0 0-4.5-2.7c-2 0-3.4.7-4.4 2.3-1 1.5-1.5 3.6-1.5 6.3v19.3c0 1.5.7 3 2 4.5 1.4 1.4 2 2.5 2 3.2v.4c0 1.1-.7 1.7-2.1 1.7H86c-1.4 0-2.1-.6-2.1-1.7v-.4c0-.7.6-1.8 2-3.2a7 7 0 0 0 2-4.5V48.1c0-1.2-.5-2.3-1.2-3.1a18.4 18.4 0 0 0-2.4-2.2c-.8-.7-1.3-1.3-1.3-2v-.3c0-.8.8-1.5 2.2-2.2L98 32.2c1.1-.5 2-.5 2.5 0 .6.4 1 1 1 2v4.3c2.4-4.5 6.7-6.7 12.8-6.7a17 17 0 0 1 11.7 4.3c3.2 3 5.1 7.7 5.6 14.2l1.2 15.3zm31.3 6.2c1.6.1 3-.6 4.1-2a8.4 8.4 0 0 0 1.7-5.4V47.2c0-2.8-.8-5.4-2.5-7.6-1.7-2.3-3.5-3.5-5.7-3.5-4.4 0-6.8 3.7-7 11a46 46 0 0 0 4 19.9c1.5 3.2 3.3 4.8 5.4 4.8zm21.2-6.2c0 1.5.6 3 1.8 4.4 1.2 1.5 1.8 2.5 1.8 3.3v.3c0 1.1-.7 1.7-2.1 1.7h-13c-1.5 0-2.3-.7-2.3-2.2v-.8a15.6 15.6 0 0 1-11 3.9c-5.9 0-10.9-2-15-6C141 66.4 139 61 139 54a21.5 21.5 0 0 1 21.4-22.2c3.6 0 6.8.8 9.3 2.5V22.5a4 4 0 0 0-1.2-3 18.4 18.4 0 0 0-2.4-2.3c-.8-.6-1.2-1.3-1.2-2v-.3c0-1 .7-1.9 2-2.3l14.2-4.2c2.6-.8 4 0 4 2.2v55zM38.7 26c.7 0 1.3.2 1.7.6.5.5.7 1 .7 1.7v2.3c0 .7-.2 1.2-.7 1.7-.4.4-1 .7-1.7.7H27.2v31c0 1.9 1 3.6 2.8 5.3 1.9 1.7 2.8 3 2.8 3.7v.4c0 1.3-.8 2-2.4 2h-23c-1.6 0-2.4-.7-2.4-2V73c0-.8.7-2 2.1-3.7A8 8 0 0 0 9.2 64V32.9H2.4c-.7 0-1.3-.3-1.7-.7-.5-.5-.7-1-.7-1.7v-2.3c0-.7.2-1.2.7-1.7.4-.4 1-.6 1.7-.6h6.8v-4.2A19 19 0 0 1 17 6.1 33.2 33.2 0 0 1 38 0c7.7 0 17.3 7.7 22.2 9.8 5.5 2.5 8.7 6.7 9 11 .3 3.3-.7 5.8-2.4 8.2-1.4 2-4.2 3.8-9 3.8-3 0-5-1-6.7-2a15 15 0 0 1-5-8L43.3 11a8.9 8.9 0 0 0-2.8-4.3c-1.3-1-3-1.5-4.6-1.5-3.5 0-6 1.9-7.4 5.7-1.5 3.9-2 8.4-1.3 13.7V26h11.5z"/><path fill="#4361EE" d="M66.7 24c-2.4-3-5-2.5-6.8-.8-1.2 1.5-2 4.8 1.7 6.9-2.4 1-6.7.8-9.1-1.6-2.8-1.9-4.2-8.8-1.3-12.1 2.7-3.2 8-4 11.3-2 3.5 1.7 4.9 5.6 4.2 9.7"/><path fill="#FFF" d="M74 65.5c0 1.5.6 3 2 4.5 1.3 1.5 2 2.5 2 3.3v.3c0 1.1-.7 1.7-2.2 1.7H56.2c-1.4 0-2.1-.6-2.1-1.7v-.3c0-.8.6-1.8 1.8-3.3a7 7 0 0 0 1.8-4.5V48.7a7 7 0 0 0-1.8-4.5c-1.2-1.5-1.8-2.5-1.8-3V41c0-.8.6-1.4 2-2L70 32.1c1.2-.5 2.2-.5 3-.1.7.4 1 1 1 2v31.4z"/><path fill="#000" d="M60 30.6s2.8-.3 4.8-2.8c2.1-2.7 2-5.1 2-5.1s-1-2-2.7-2.7a6 6 0 0 0-7 1.6c-2.4 3-.9 5.8.2 7a8 8 0 0 0 2.6 2"/><path fill="#FFF" d="M220.2 73a12 12 0 0 0 8-3.4c2.3-2.3 3.5-5.5 3.5-9.4h.1V46.7c0-3-1.4-5.8-4-8.5-2.7-2.6-5.8-4-9.3-4-4 0-7.1 1.6-9.6 4.6a19.8 19.8 0 0 0-3.8 12.1 26.5 26.5 0 0 0 4.1 15.6c2.9 4.3 6.5 6.4 11 6.5zm19.2-4.2c0 1.2.6 2.2 1.7 3.1 1.1 1 1.7 1.5 1.7 1.9v.3c0 .6-.5 1-1.4 1h-7.6c-1 0-1.4-.5-1.5-1.5l-.2-4.4a14.7 14.7 0 0 1-6 5 20 20 0 0 1-22.6-4.5 22 22 0 0 1-6.1-16.1c0-6.5 2-11.8 6-16 4-4.1 9.1-6.2 15.2-6.2 5.3 0 9.7 2 13.1 5.8V17.8c0-1-.3-2-1-2.6a8.5 8.5 0 0 0-1.8-1.5c-.7-.4-1-.7-1-1.2v-.1c0-.6.5-1.1 1.4-1.6l7.3-2.4c1.9-.7 2.8-.2 2.8 1.4v59z"/><path fill="#FFF" d="M218.5 34.6c-3.8 0-7 1.5-9.3 4.5a19 19 0 0 0-3.7 11.8c0 6 1.3 11.3 4 15.4 2.8 4.1 6.4 6.3 10.7 6.3a11 11 0 0 0 7.7-3.3 12 12 0 0 0 3.4-9.1v-.4h.1V46.7c0-2.9-1.4-5.7-4-8.2a12.4 12.4 0 0 0-9-3.9m1.8 38.8c-4.6 0-8.4-2.3-11.3-6.7a27 27 0 0 1-4.1-15.8c0-5 1.3-9.2 3.8-12.3a12 12 0 0 1 9.9-4.7c3.6 0 6.8 1.4 9.5 4 2.7 2.8 4 5.7 4 8.8v9l.2 4.8h-.1c0 4-1.3 7-3.7 9.3a11.7 11.7 0 0 1-8.2 3.6m-1.6-41.6a20 20 0 0 0-14.9 6.1c-4 4-6 9.3-6 15.7 0 6.4 2 11.8 6 15.8A19.8 19.8 0 0 0 226 74c2.3-1.2 4.3-2.8 5.8-5l.6-1 .2 5.7c.1.7.5 1 1.2 1h7.6c1 0 1-.3 1-.5v-.3s0-.4-1.6-1.6c-1.2-1-1.8-2-1.8-3.4v-59c0-.6-.1-1-.4-1.2-.3-.2-1-.1-1.9.2l-7.3 2.4c-.7.3-1.1.7-1.1 1.2v.1c0 .4.4.7.7.9a7 7 0 0 1 2 1.5 4 4 0 0 1 1 2.9v20.4l-.6-.8a16.5 16.5 0 0 0-12.8-5.6m-.3 44.5c-5.8 0-10.9-2.1-15-6.3a22.4 22.4 0 0 1-6.3-16.4c0-6.6 2-12 6.1-16.2a21 21 0 0 1 15.5-6.4c5 0 9.3 1.8 12.7 5.2V17.8c0-1-.3-1.7-.8-2.3a8.1 8.1 0 0 0-1.8-1.5c-.8-.4-1.2-.9-1.2-1.5v-.1c0-.8.5-1.4 1.6-1.9l7.4-2.4c1.1-.5 2-.5 2.6 0 .5.2.7.8.7 1.7v59c0 1 .5 2 1.5 2.8 1.6 1.3 1.9 1.8 1.9 2.2v.3c0 .5-.3 1.3-1.8 1.3h-7.6c-1.1 0-1.8-.6-2-1.7v-3.4a15.2 15.2 0 0 1-5.5 4.2 18.6 18.6 0 0 1-8 1.8"/><path fill="#FFF" d="M218.5 34.5c-3.8 0-7 1.6-9.4 4.5a19 19 0 0 0-3.7 12 28 28 0 0 0 4 15.4 13 13 0 0 0 10.8 6.3 11 11 0 0 0 7.7-3.3c2.3-2.3 3.5-5.4 3.5-9.2v-.3h.1V46.7c0-3-1.4-5.7-4-8.3a12.5 12.5 0 0 0-9-3.9m1.7 38.8c-4.6 0-8.3-2.3-11.2-6.6a26.9 26.9 0 0 1-4.1-15.8c0-5 1.3-9.1 3.8-12.2a12 12 0 0 1 9.8-4.7 13 13 0 0 1 9.5 4c2.6 2.7 4 5.6 4 8.7v13.8c0 3.9-1.3 7-3.7 9.3a11.6 11.6 0 0 1-8.1 3.5m-1.6-41.6c-6 0-11 2-15 6.1s-6 9.4-6 15.8c0 6.5 2 11.8 6.1 15.9a19.8 19.8 0 0 0 22.3 4.4c2.4-1 4.4-2.8 5.8-4.9l.5-.7.2 5.3c.1.8.5 1.2 1.3 1.2h7.6c1 0 1-.5 1-.7v-.3s0-.5-1.5-1.7a4 4 0 0 1-1.8-3.3v-59c0-.6-.1-1-.4-1.2-.4-.3-1-.2-2 .1l-7.3 2.4c-.8.4-1.2.8-1.2 1.3v.1c0 .3.3.6.8 1 .7.3 1.3.8 2 1.5s1 1.7 1 2.8V38l-.5-.6a16.6 16.6 0 0 0-13-5.7m-.2 44.5c-5.8 0-10.8-2.1-15-6.3a22.3 22.3 0 0 1-6.2-16.3 21.1 21.1 0 0 1 21.5-22.5c5 0 9.4 1.8 12.8 5.4V17.8c0-1-.3-1.8-.9-2.4a8.3 8.3 0 0 0-1.8-1.5c-.7-.4-1-.8-1-1.4v-.1c0-.8.4-1.3 1.4-1.8l7.4-2.4c1.1-.5 2-.5 2.5-.1.5.3.7.9.7 1.7v59c0 1.1.5 2 1.6 2.9 1.6 1.3 1.8 1.8 1.8 2v.4c0 .4-.3 1.2-1.7 1.2h-7.6c-1 0-1.7-.6-1.8-1.7l-.2-3.6a15 15 0 0 1-5.5 4.4 18.5 18.5 0 0 1-8 1.8"/><path fill="#FFF" d="M218.5 35a11 11 0 0 0-9 4.3 18.3 18.3 0 0 0-3.7 11.6 26 26 0 0 0 4 15.3c2.7 4 6.2 6 10.4 6.1 2.7 0 5.2-1 7.5-3.2 2.2-2.2 3.3-5.2 3.3-9v-.6h.1V46.7c0-2.8-1.3-5.5-3.8-8a12 12 0 0 0-8.8-3.8m1.7 38.8c-4.7-.1-8.6-2.4-11.5-6.8a27.2 27.2 0 0 1-4.2-16c0-5.1 1.3-9.3 3.9-12.5 2.6-3.2 6-4.8 10-4.8 3.8 0 7.1 1.4 9.8 4.2 2.8 2.7 4.2 5.7 4.2 9v14c-.2 3.9-1.4 7-3.8 9.2a12 12 0 0 1-8.4 3.7M218.6 32c-5.9 0-10.8 2-14.7 6-3.9 4-5.9 9.2-5.9 15.5 0 6.4 2 11.6 6 15.6a19.5 19.5 0 0 0 21.8 4.4c2.4-1.1 4.3-2.7 5.7-4.8l1.2-1.7.2 6.5c.1.6.3.8.9.8h7.6c.7 0 .7-.2.7-.3v-.3s-.1-.3-1.4-1.4c-1.3-1-2-2.2-2-3.6v-59c0-.5 0-.8-.2-1-.1 0-.5-.2-1.7.3l-7.3 2.4c-.3.1-1 .5-1 .9v.1c0 .2.2.4.7.6.7.4 1.4 1 2 1.7a4 4 0 0 1 1.2 3V39l-1.2-1.4a16.3 16.3 0 0 0-12.6-5.5m-.3 44.5c-6 0-11-2.2-15.3-6.4a22.7 22.7 0 0 1-6.3-16.6c0-6.6 2-12.1 6.2-16.4a21 21 0 0 1 15.7-6.4c4.9 0 9 1.6 12.4 4.7V17.8c0-1-.2-1.6-.7-2.1a7.3 7.3 0 0 0-1.8-1.4c-.8-.5-1.3-1-1.3-1.8v-.1c0-1 .6-1.6 1.8-2.2l7.4-2.4c1.2-.5 2.2-.5 2.8 0 .6.4.9 1 .9 2v59c0 1 .5 1.8 1.4 2.6 1.7 1.4 2 2 2 2.4v.3c0 .3-.2 1.6-2 1.6h-7.7c-1.3 0-2-.7-2.2-2l-.1-2.7a15.5 15.5 0 0 1-5 3.8 18.9 18.9 0 0 1-8.2 1.8M267 34.3c-3.7 0-6.6 1.5-8.8 4.6-2.3 3-3.4 7-3.4 11.6 0 1.7.1 3.3.4 4.5l20.2-7.1c1.4-.6 2.2-1.6 2.2-3.1 0-2.3-1-4.6-3.2-7a9.6 9.6 0 0 0-7.4-3.5m16.7 28.2c.5-.7 1-1 1.8-.8.7.2 1 .7.9 1.5-.7 3.1-2.6 6-5.8 8.7a19 19 0 0 1-12.6 4c-6 0-11-2-15-6.2s-6-9.6-6-16.4a21.4 21.4 0 0 1 21.3-21.9c5.2 0 9.2 1.4 12.3 4a12 12 0 0 1 4.6 9.2c0 2.5-1.4 4.3-4.3 5.2L256 58a17 17 0 0 0 5.4 9c2.6 2.2 5.8 3.3 9.5 3.3 6.2 0 10.5-2.6 13-7.7"/><path fill="#FFF" d="M267 34.6a10 10 0 0 0-8.4 4.5 19 19 0 0 0-3.3 11.4c0 1.5 0 2.9.3 4l19.8-7c1.2-.5 1.9-1.4 1.9-2.7 0-2.2-1-4.4-3-6.7a9.3 9.3 0 0 0-7.2-3.5zm-12 21-.1-.5c-.2-1.3-.4-2.8-.4-4.6 0-4.7 1.2-8.7 3.5-11.8 2.3-3.2 5.3-4.8 9-4.8 3 0 5.7 1.2 7.8 3.7 2.2 2.4 3.3 4.8 3.3 7.2 0 1.6-.9 2.8-2.5 3.4L255 55.5zm13.4-23.8a20.9 20.9 0 0 0-21 21.5c0 6.7 2 12 6 16.1 3.9 4 8.8 6.1 14.7 6.1 5 0 9.2-1.3 12.3-3.9 3.1-2.6 5-5.4 5.7-8.5 0-.7-.2-1-.6-1-.6-.1-1 0-1.3.6-2.5 5.2-7 8-13.3 8-3.8 0-7-1.2-9.8-3.4a17.4 17.4 0 0 1-5.6-9.3v-.3l25.4-8.2c2.7-1 4-2.5 4-5 0-3.2-1.5-6.1-4.5-8.8-3-2.6-7-4-12-4zm-.3 44.5c-6.1 0-11.3-2.1-15.3-6.3a23 23 0 0 1-6.2-16.7c0-6.3 2.2-11.6 6.3-15.9a21 21 0 0 1 15.5-6.4c5.2 0 9.4 1.4 12.6 4.2 3 2.7 4.7 6 4.7 9.4 0 2.7-1.6 4.6-4.6 5.6l-24.7 8c1 3.6 2.8 6.5 5.2 8.5a15 15 0 0 0 9.3 3.2c6 0 10.2-2.5 12.6-7.6a2 2 0 0 1 2.1-1c.6.2 1.4.6 1.2 2a16 16 0 0 1-5.9 9 19.5 19.5 0 0 1-12.8 4z"/><path fill="#FFF" d="M267 34.5c-3.4 0-6.3 1.6-8.5 4.6a19 19 0 0 0-3.3 11.4c0 1.6.1 3 .3 4.1l19.9-7c1.3-.5 2-1.5 2-2.8 0-2.2-1-4.5-3-6.8a9.4 9.4 0 0 0-7.3-3.5zm-12 20.9V55c-.3-1.3-.4-2.8-.4-4.6a20 20 0 0 1 3.4-11.8c2.3-3.1 5.4-4.7 9-4.7 3 0 5.6 1.2 7.8 3.6a11 11 0 0 1 3.2 7.2c0 1.6-.8 2.7-2.4 3.3l-20.5 7.3zm13.4-23.7c-6 0-11 2-15 6.2-4 4-6 9.3-6 15.4 0 6.7 2 12.1 5.9 16.2 4 4 8.9 6.1 14.8 6.1 5 0 9.2-1.3 12.4-3.9a16 16 0 0 0 5.7-8.6c.1-.8-.3-1-.7-1-.6-.2-1 0-1.4.5-2.5 5.3-7 8-13.2 8-3.8 0-7-1.2-9.7-3.4a17.3 17.3 0 0 1-5.6-9.2v-.2l25.3-8.2c2.8-1 4-2.6 4-5 0-3.3-1.4-6.3-4.4-9-3-2.6-7-3.9-12-3.9zm-.3 44.5c-6 0-11.2-2.1-15.3-6.3a23 23 0 0 1-6-16.6 21.4 21.4 0 0 1 21.6-22.2 18 18 0 0 1 12.5 4.2c3.1 2.7 4.7 5.8 4.7 9.3 0 2.7-1.5 4.5-4.5 5.5l-24.8 8c1 3.7 2.8 6.6 5.3 8.7 2.5 2 5.7 3.1 9.3 3.1 6 0 10.3-2.5 12.7-7.5.5-.8 1.2-1.1 2-1 .9.2 1.3.9 1.1 1.8a16 16 0 0 1-5.9 9c-3.2 2.6-7.5 4-12.7 4z"/><path fill="#FFF" d="M267 35a9.8 9.8 0 0 0-8.2 4.3 19 19 0 0 0-3.2 11.2c0 1.3 0 2.6.2 3.6l19.5-6.8c1.1-.5 1.7-1.3 1.7-2.5 0-2.1-1-4.3-3-6.5a9 9 0 0 0-7-3.4zm-12.2 20.9-.2-.8a25 25 0 0 1-.4-4.6 20 20 0 0 1 3.5-12 11 11 0 0 1 9.4-4.9c3 0 5.7 1.3 8 3.8 2.1 2.5 3.2 5 3.2 7.4 0 1.7-.9 3-2.6 3.7l-21 7.4zM268.4 32a20 20 0 0 0-14.7 6c-4 4-6 9.2-6 15.2 0 6.6 2 12 5.8 16 4 4 8.8 6 14.6 6 5 0 9-1.3 12.1-3.9 3-2.5 5-5.4 5.6-8.3 0-.6-.2-.7-.4-.7-.4-.1-.7 0-1 .4-2.5 5.4-7 8-13.5 8a15 15 0 0 1-10-3.3 17.7 17.7 0 0 1-5.6-9.4l-.2-.6 25.7-8.3c2.6-.9 3.8-2.3 3.8-4.6 0-3.2-1.5-6-4.3-8.6-3-2.6-7-4-11.9-4zm-.3 44.5c-6.2 0-11.4-2.2-15.5-6.4-4.2-4.3-6.2-10-6.2-16.9 0-6.4 2-11.8 6.3-16a21 21 0 0 1 15.7-6.6c5.3 0 9.6 1.5 12.8 4.3 3.1 2.8 4.8 6 4.8 9.6 0 2.8-1.6 4.8-4.8 5.9l-24.5 7.9c1 3.4 2.8 6.1 5.1 8 2.5 2.1 5.6 3.2 9 3.2 6 0 10.1-2.5 12.4-7.4.6-1 1.5-1.3 2.5-1.1 1 .2 1.6 1 1.4 2.2-.7 3.3-2.7 6.4-6 9.1a19.8 19.8 0 0 1-13 4.2zm63.7-44.3c.9 0 1.3.3 1.3 1v.3c0 .5-.6 1.2-2 2a6.8 6.8 0 0 0-2.6 3l-14.3 34.7c-.5 1.1-1.3 1.7-2.4 1.7H309c-1 0-1.9-.6-2.4-1.7l-16.2-34.8c-.5-1-1.3-2-2.4-2.8-1-.9-1.5-1.6-1.5-2.1v-.3c0-.7.4-1 1.3-1h12.6c.9 0 1.3.4 1.3 1v.3c0 .3-.5.9-1.6 1.9-1 1-1.3 2-.9 3.1L312 69.4l12.4-30c.4-1 .4-1.7.2-2.4a3 3 0 0 0-1.2-1.4 38.7 38.7 0 0 1-1.4-1c-.5-.3-.7-.6-.7-1v-.2c0-.7.4-1.1 1.3-1.1h9.2z"/><path fill="#FFF" d="M287.8 32.7c-1 0-1 .4-1 .6v.3c0 .2.2.7 1.5 1.8 1 1 1.9 2 2.4 3L307 73c.5 1 1.2 1.6 2.1 1.6h2.8c1 0 1.6-.5 2-1.6l14.4-34.7c.4-1 1.3-2.1 2.7-3 1.7-1.1 1.9-1.7 1.9-1.8v-.3c0-.2 0-.6-1-.6h-9.2c-1 0-1 .4-1 .7v.2c0 .3.4.6.6.7l1.4 1c.6.3 1 .9 1.3 1.6.3.7.3 1.6-.1 2.7L312 70.4l-13-31.6c-.5-1.3-.2-2.5 1-3.6 1.3-1.2 1.4-1.5 1.4-1.6v-.2c0-.4 0-.7-.9-.7h-12.6zm24 42.7H309c-1.2 0-2.2-.7-2.8-2L290 38.7a8 8 0 0 0-2.2-2.7c-1.2-1-1.7-1.8-1.7-2.5v-.2c0-.5.2-1.4 1.7-1.4h12.6c1 0 1.7.6 1.7 1.5v.2c0 .3-.2.7-1.7 2.1-.9 1-1.2 1.8-.8 2.8l12.4 30 12-29.2c.4-.9.5-1.6.2-2.1-.2-.6-.6-1-1-1.3l-1.4-1c-.6-.3-1-.8-1-1.3v-.2c0-.6.3-1.5 1.8-1.5h9.2c1.5 0 1.7.9 1.7 1.4v.3c0 .6-.7 1.4-2.1 2.4a6.4 6.4 0 0 0-2.5 2.7l-14.3 34.7c-.6 1.3-1.5 2-2.8 2z"/><path fill="#FFF" d="M287.8 32.6c-1 0-1 .5-1 .7v.3c0 .3.2.8 1.4 1.9a9 9 0 0 1 2.4 3L306.8 73c.5 1.1 1.3 1.7 2.2 1.7h2.8c1 0 1.7-.6 2.1-1.6l14.3-34.8a7 7 0 0 1 2.8-3c1.6-1 1.9-1.6 1.9-1.8v-.3c0-.2 0-.7-1.1-.7h-9.2c-1 0-1 .4-1 .8v.2c0 .3.2.6.6.8l1.4 1c.5.3 1 .8 1.2 1.5.3.7.3 1.6 0 2.6L312 70.2l-13-31.5c-.5-1.2-.2-2.4 1-3.4 1.3-1.3 1.4-1.6 1.4-1.7v-.2c0-.4-.1-.8-1-.8h-12.6zm24 42.7H309c-1.2 0-2-.6-2.7-2l-16.2-34.6c-.5-1-1.2-2-2.2-2.8-1.2-1-1.7-1.7-1.7-2.4v-.2c0-.5.2-1.3 1.6-1.3h12.6c1.4 0 1.6.9 1.6 1.4v.2c0 .3-.2.6-1.7 2-.9 1-1.2 1.9-.8 3l12.5 30 12.2-29.3c.3-.8.3-1.6.1-2.2-.2-.6-.6-1-1-1.3a36.6 36.6 0 0 1-1.5-.9c-.5-.4-.8-.8-.8-1.3v-.2c0-.5.2-1.4 1.6-1.4h9.2c1.4 0 1.6.8 1.6 1.3v.3c0 .6-.6 1.4-2 2.3a6.5 6.5 0 0 0-2.6 2.7l-14.3 34.8c-.6 1.3-1.4 2-2.7 2z"/><path fill="#FFF" d="M287.8 33c-.7 0-.7.1-.7.3v.3s.1.5 1.4 1.6c1.1 1 2 2 2.5 3L307.2 73c.4 1 1 1.4 1.8 1.4h2.8c.8 0 1.4-.5 1.8-1.4l14.3-34.7a7.4 7.4 0 0 1 2.9-3.2c1.6-1 1.7-1.5 1.7-1.6v-.2c0-.2 0-.3-.7-.3h-9.2c-.7 0-.7.2-.7.4v.2l.5.5 1.4 1c.6.3 1 .9 1.4 1.7.3.8.3 1.8-.1 2.9l-13 31.5-13.5-32.3c-.5-1.4-.1-2.8 1-4a9 9 0 0 0 1.4-1.4v-.1c0-.3 0-.4-.6-.4h-12.6zm24 42.7H309c-1.3 0-2.4-.8-3-2.2l-16.3-34.7a7.1 7.1 0 0 0-2.1-2.6c-1.2-1-1.8-1.9-1.8-2.7v-.2c0-.4.1-1.7 2-1.7h12.6c1.2 0 2 .7 2 1.8v.2c0 .4-.2.8-1.8 2.3-.8.8-1 1.6-.7 2.5L312 67.7l11.8-28.5c.3-.8.4-1.4.2-2-.3-.4-.6-.8-1-1l-1.4-1c-.7-.4-1-1-1-1.6v-.2c0-.4.1-1.8 2-1.8h9.2c1.9 0 2 1.3 2 1.7v.2c0 .8-.7 1.7-2.3 2.7-1.2.8-2 1.7-2.4 2.6l-14.3 34.7c-.6 1.4-1.6 2.2-3 2.2zm41-41.4c-3.6 0-6.5 1.5-8.8 4.6-2.2 3-3.3 7-3.3 11.6 0 1.7 0 3.3.3 4.5l20.2-7.1c1.5-.6 2.2-1.6 2.2-3.1 0-2.3-1-4.6-3.1-7a9.6 9.6 0 0 0-7.5-3.5m16.8 28.2c.4-.7 1-1 1.7-.8.7.2 1 .7 1 1.5a17 17 0 0 1-5.9 8.7 19 19 0 0 1-12.6 4c-6 0-11-2-15-6.2s-6-9.6-6-16.4a21.4 21.4 0 0 1 21.4-21.9c5.1 0 9.2 1.4 12.3 4a12 12 0 0 1 4.5 9.2c0 2.5-1.4 4.3-4.2 5.2L341.7 58a17 17 0 0 0 5.4 9c2.7 2.2 5.8 3.3 9.5 3.3 6.2 0 10.6-2.6 13-7.7"/><path fill="#FFF" d="M352.8 34.6a10 10 0 0 0-8.5 4.5 19 19 0 0 0-3.3 11.4c0 1.5.1 2.9.3 4l19.8-7c1.3-.5 2-1.4 2-2.7 0-2.2-1-4.4-3.1-6.7a9.3 9.3 0 0 0-7.2-3.5zm-12 21-.2-.5c-.2-1.3-.3-2.8-.3-4.6 0-4.7 1.1-8.7 3.4-11.8 2.3-3.2 5.4-4.8 9.1-4.8 3 0 5.6 1.2 7.8 3.7a11 11 0 0 1 3.2 7.2c0 1.6-.8 2.8-2.4 3.4l-20.7 7.3zm13.4-23.8a20.9 20.9 0 0 0-21 21.5c0 6.7 2 12 5.9 16.1 4 4 8.9 6.1 14.7 6.1 5 0 9.2-1.3 12.4-3.9 3-2.6 5-5.4 5.6-8.5.1-.7-.2-1-.6-1-.5-.1-1 0-1.3.6-2.5 5.2-7 8-13.3 8a15 15 0 0 1-9.7-3.4 17.4 17.4 0 0 1-5.6-9.3l-.1-.3 25.4-8.2c2.7-1 4-2.5 4-5 0-3.2-1.5-6.1-4.4-8.8-3-2.6-7-4-12-4zm-.4 44.5c-6 0-11.2-2.1-15.3-6.3a23 23 0 0 1-6.1-16.7c0-6.3 2.1-11.6 6.3-15.9a21 21 0 0 1 15.5-6.4 18 18 0 0 1 12.5 4.2c3.1 2.7 4.7 6 4.7 9.4 0 2.7-1.5 4.6-4.5 5.6l-24.8 8c1 3.6 2.8 6.5 5.3 8.5s5.6 3.2 9.2 3.2c6.1 0 10.3-2.5 12.6-7.6.6-.8 1.3-1.1 2.2-1 .5.2 1.4.6 1.2 2-.7 3.2-2.7 6.2-6 9a19.5 19.5 0 0 1-12.8 4z"/><path fill="#FFF" d="M352.8 34.5a10 10 0 0 0-8.5 4.6 19 19 0 0 0-3.3 11.4c0 1.6 0 3 .2 4.1l20-7c1.3-.5 2-1.5 2-2.8 0-2.2-1.1-4.5-3.1-6.8a9.4 9.4 0 0 0-7.3-3.5zm-12 20.9V55c-.3-1.3-.4-2.8-.4-4.6 0-4.7 1.1-8.7 3.4-11.8 2.3-3.1 5.3-4.7 9-4.7 3 0 5.6 1.2 7.7 3.6a11 11 0 0 1 3.2 7.2c0 1.6-.8 2.7-2.3 3.3l-20.6 7.3zm13.4-23.7c-6 0-11 2-15 6.2-4 4-6.1 9.3-6.1 15.4 0 6.7 2 12.1 6 16.2 3.9 4 8.8 6.1 14.7 6.1 5.1 0 9.3-1.3 12.4-3.9 3.2-2.6 5-5.5 5.7-8.6.1-.8-.3-1-.7-1-.6-.2-1 0-1.4.5-2.4 5.3-6.9 8-13.2 8-3.7 0-7-1.2-9.6-3.4a17.3 17.3 0 0 1-5.6-9.2v-.2l25.3-8.2c2.7-1 4-2.6 4-5 0-3.3-1.5-6.3-4.4-9-3-2.6-7-3.9-12.1-3.9zm-.4 44.5c-6 0-11.1-2.1-15.2-6.3a23 23 0 0 1-6.1-16.6 21.4 21.4 0 0 1 21.7-22.2c5.2 0 9.4 1.4 12.4 4.2 3.1 2.7 4.7 5.8 4.7 9.3 0 2.7-1.5 4.5-4.4 5.5l-24.9 8c1 3.7 2.8 6.6 5.3 8.7 2.6 2 5.7 3.1 9.3 3.1 6 0 10.4-2.5 12.7-7.5.5-.8 1.2-1.1 2-1 1 .2 1.3.9 1.2 1.8-.7 3.2-2.7 6.2-6 9-3.1 2.6-7.5 4-12.7 4z"/><path fill="#FFF" d="M352.8 35a9.8 9.8 0 0 0-8.2 4.3c-2.2 3-3.3 6.7-3.3 11.2 0 1.3.1 2.6.3 3.6l19.4-6.8c1.2-.5 1.7-1.3 1.7-2.5 0-2.1-1-4.3-3-6.5a9 9 0 0 0-6.9-3.4zm-12.3 20.9-.1-.8a25 25 0 0 1-.4-4.6 20 20 0 0 1 3.5-12 11 11 0 0 1 9.3-4.9c3.1 0 5.8 1.3 8 3.8s3.3 5 3.3 7.4c0 1.7-1 3-2.6 3.7l-21 7.4zM354.2 32a20 20 0 0 0-14.8 6c-4 4-6 9.2-6 15.2 0 6.6 2 12 5.9 16 3.9 4 8.7 6 14.5 6 5 0 9.1-1.3 12.2-3.9 3-2.5 5-5.4 5.5-8.3.1-.6-.1-.7-.3-.7-.5-.1-.8 0-1 .4-2.5 5.4-7.1 8-13.6 8a15 15 0 0 1-9.9-3.3A17.7 17.7 0 0 1 341 58l-.2-.6 25.8-8.3c2.5-.9 3.8-2.3 3.8-4.6 0-3.2-1.5-6-4.4-8.6-3-2.6-6.9-4-11.8-4zm-.4 44.5a21 21 0 0 1-15.5-6.4c-4.1-4.3-6.2-10-6.2-16.9 0-6.4 2.1-11.8 6.4-16a21 21 0 0 1 15.7-6.6c5.3 0 9.5 1.5 12.7 4.3 3.2 2.8 4.8 6 4.8 9.6 0 2.8-1.6 4.8-4.7 5.9l-24.5 7.9a16 16 0 0 0 5 8 14 14 0 0 0 9.1 3.2c6 0 10-2.5 12.4-7.4.6-1 1.4-1.3 2.4-1.1 1.1.2 1.6 1 1.5 2.2-.7 3.3-2.8 6.4-6 9.1a19.8 19.8 0 0 1-13 4.2zM378 75c-1.1 0-1.7-.3-1.7-1.1v-.3c0-.5.5-1.1 1.6-1.9 1-.8 1.6-1.8 1.6-2.9v-50c0-1-.3-1.9-.8-2.6-.5-.6-1-1.2-1.6-1.6-.5-.4-.8-.8-.8-1.2v-.1c0-.5.4-1 1.3-1.5l7-3.4c1-.3 1.6-.4 2.1 0 .5.2.7.6.7 1.3v59.1c0 1.1.6 2.1 1.8 2.9 1.2.8 1.8 1.4 1.8 2v.2c0 .8-.6 1.1-1.8 1.1H378z"/><path fill="#FFF" d="m385.9 8.5-1.2.3-7 3.4c-.7.3-1.1.7-1.1 1v.2c0 .3.2.6.6.9.6.4 1.2 1 1.7 1.7.6.8.9 1.7.9 2.8v50A4 4 0 0 1 378 72c-1.3 1-1.4 1.5-1.4 1.6v.3c0 .2 0 .8 1.3.8h11.2c1.4 0 1.4-.6 1.4-.8v-.3c0-.1-.1-.6-1.6-1.6-1.3-.9-2-2-2-3.2V9.7c0-.7-.2-1-.5-1a1.1 1.1 0 0 0-.5-.2m3.2 67h-11.2c-1.8 0-2-1-2-1.6v-.3c0-.6.5-1.3 1.6-2.2 1-.7 1.5-1.6 1.5-2.6v-50a4 4 0 0 0-.7-2.3c-.5-.7-1-1.2-1.5-1.6-.7-.5-1-1-1-1.5v-.1c0-.7.5-1.2 1.5-1.8l7-3.4c1.1-.4 2-.4 2.5-.1.4.2 1 .7 1 1.7v59.1c0 1 .5 1.9 1.5 2.6 1.4.9 2 1.6 2 2.2v.3c0 .6-.3 1.5-2.2 1.5"/><path fill="#FFF" d="m385.9 8.4-1.3.3-7 3.4c-.7.4-1.1.8-1.1 1.2v.1c0 .3.2.6.7 1 .5.4 1.1 1 1.6 1.7.6.7.9 1.6.9 2.7v50c0 1.2-.6 2.3-1.7 3.1-1.3 1-1.5 1.5-1.5 1.7v.3c0 .2 0 .9 1.4.9h11.2c1.5 0 1.5-.7 1.5-1v-.2c0-.2-.2-.7-1.7-1.7a3.7 3.7 0 0 1-1.8-3.1V9.7c0-.6-.2-1-.6-1.1a1.2 1.2 0 0 0-.6-.2m3.2 67h-11.2c-1.6 0-2-.9-2-1.5v-.3c0-.6.5-1.2 1.7-2.1 1-.8 1.5-1.7 1.5-2.7v-50c0-1-.3-1.8-.7-2.4a6 6 0 0 0-1.6-1.6c-.6-.5-.9-1-.9-1.4v-.1c0-.6.5-1.2 1.4-1.7l7.1-3.4c1-.4 1.8-.5 2.4-.1.5.3.8.8.8 1.6v59.1c0 1 .6 2 1.7 2.7 1.3.8 1.9 1.5 1.9 2.1v.3c0 .6-.4 1.4-2.1 1.4"/><path fill="#FFF" d="M385.9 8.8c-.3 0-.7 0-1.1.3l-7 3.3c-.7.4-1 .7-1 .9v.1l.6.7c.6.4 1.2 1 1.7 1.7a5 5 0 0 1 1 3v50c0 1.3-.7 2.5-2 3.4-1.2 1-1.2 1.4-1.2 1.4v.3c0 .1 0 .5 1 .5h11.2c1.1 0 1.1-.4 1.1-.5v-.3s0-.4-1.5-1.4c-1.3-.9-2-2-2-3.4V9.7c0-.5-.2-.7-.4-.8a.9.9 0 0 0-.4-.1m3.2 66.9h-11.2c-2.1 0-2.4-1.3-2.4-1.8v-.3c0-.7.6-1.5 1.9-2.4.9-.7 1.3-1.5 1.3-2.4v-50c0-.9-.2-1.6-.6-2.2l-1.5-1.5c-.7-.5-1-1-1-1.7v-.1c0-.8.4-1.4 1.5-2l7.1-3.5c1.2-.4 2-.4 2.7 0 .7.3 1.1 1 1.1 1.9v59.1c0 1 .5 1.7 1.5 2.4 1.4 1 2 1.7 2 2.4v.3c0 .5-.2 1.8-2.4 1.8m31-2.7c3.5 0 6.5-1.5 8.8-4.5 2.3-3 3.5-6.9 3.5-11.8a27 27 0 0 0-4.5-15.9c-3-4.3-6.9-6.4-11.5-6.4-3.8 0-7 1.4-9.4 4.4a18 18 0 0 0-3.6 11.8c0 5.9 1.6 11.1 4.7 15.6s7.1 6.8 12 6.8m-1.1 3a22.8 22.8 0 0 1-23.7-23 21.6 21.6 0 0 1 22-21.6 22.3 22.3 0 0 1 23 22.6c0 6.3-2 11.5-6 15.7-3.9 4.1-9 6.2-15.3 6.2"/><path fill="#FFF" d="M416.4 34.7a11 11 0 0 0-9 4.3 17.7 17.7 0 0 0-3.6 11.6c0 5.8 1.5 11 4.6 15.4 3 4.4 7 6.6 11.7 6.6 3.4 0 6.3-1.4 8.5-4.3 2.3-2.9 3.4-6.8 3.4-11.6 0-6.2-1.5-11.5-4.5-15.7-2.9-4.2-6.6-6.3-11-6.3m3.6 38.7c-5 0-9.1-2.4-12.3-7a27.2 27.2 0 0 1-4.8-15.8c0-5 1.3-9 3.7-12a12 12 0 0 1 9.7-4.6 14 14 0 0 1 11.8 6.6c3 4.3 4.6 9.8 4.6 16.1 0 5-1.2 9-3.6 12a11.2 11.2 0 0 1-9.1 4.7m-2.8-41.6A20.7 20.7 0 0 0 395.7 53a22 22 0 0 0 6.5 16 23 23 0 0 0 16.8 6.6 20 20 0 0 0 15.1-6.2c4-4.1 5.9-9.3 5.9-15.4a22 22 0 0 0-22.6-22.2m1.6 44.5A23.3 23.3 0 0 1 395 53c0-6.2 2.1-11.5 6.4-15.7a22 22 0 0 1 16-6.3 22.8 22.8 0 0 1 23.4 23c0 6.3-2 11.7-6.1 16a21 21 0 0 1-15.7 6.3"/><path fill="#FFF" d="M416.4 34.6c-3.7 0-6.8 1.5-9.2 4.3a17.8 17.8 0 0 0-3.5 11.7c0 5.8 1.5 11 4.6 15.5 3.1 4.4 7 6.6 11.8 6.6 3.4 0 6.3-1.5 8.6-4.3 2.3-3 3.4-6.9 3.4-11.7 0-6.2-1.5-11.5-4.5-15.7-3-4.2-6.7-6.4-11.2-6.4m3.7 38.7c-5 0-9-2.3-12.2-7a27.1 27.1 0 0 1-4.8-15.7c0-5 1.2-9 3.7-12a12 12 0 0 1 9.6-4.5 14 14 0 0 1 11.7 6.5 28 28 0 0 1 4.6 16.1c0 5-1.2 9-3.6 12a11 11 0 0 1-9 4.6m-2.8-41.6A21.1 21.1 0 0 0 395.6 53c0 6.2 2.2 11.6 6.5 16s10 6.6 16.9 6.6a20 20 0 0 0 15.2-6.1c3.9-4.2 5.9-9.3 5.9-15.5a22.1 22.1 0 0 0-22.7-22.3m1.6 44.5c-7 0-12.9-2.3-17.3-6.8S395 59.4 395 53a21 21 0 0 1 6.5-15.6 22 22 0 0 1 15.8-6.3 22.7 22.7 0 0 1 23.4 23c0 6.2-2 11.5-6.1 15.7-4 4.3-9.3 6.4-15.6 6.4"/><path fill="#FFF" d="M416.4 35a11 11 0 0 0-8.9 4.2 17.4 17.4 0 0 0-3.4 11.4 26 26 0 0 0 4.6 15.3c3 4.2 6.8 6.4 11.4 6.4 3.3 0 6-1.4 8.3-4.2a18 18 0 0 0 3.3-11.4c0-6.1-1.5-11.3-4.4-15.5-2.9-4.1-6.5-6.2-10.9-6.2m3.7 38.7a15 15 0 0 1-12.6-7.1c-3.2-4.6-4.8-10-4.8-16a19 19 0 0 1 3.8-12.3c2.5-3 5.9-4.6 10-4.6 4.7 0 8.8 2.3 12 6.7 3 4.4 4.6 9.9 4.6 16.3 0 5-1.3 9.2-3.7 12.2a11.5 11.5 0 0 1-9.3 4.8M417.3 32c-6 0-11 2-15.2 6-4 4-6.1 9-6.1 15s2.1 11.3 6.4 15.6a22 22 0 0 0 16.6 6.6c6 0 11-2 14.9-6.1 3.8-4 5.8-9.1 5.8-15.2s-2.1-11.4-6.3-15.6a21.7 21.7 0 0 0-16-6.3m1.6 44.5A23.6 23.6 0 0 1 394.6 53a22.3 22.3 0 0 1 22.7-22.3A23 23 0 0 1 441 54c0 6.4-2 11.8-6.1 16.1a21 21 0 0 1-16 6.5m49.7-3.5a12 12 0 0 0 10-4.9c2.5-3.2 3.7-7.6 3.7-13 0-6.2-1.3-11.2-4-15.1a12.5 12.5 0 0 0-10.7-5.8 11 11 0 0 0-7.5 2.9 11 11 0 0 0-3.9 7v15.2c0 3.5 1.3 6.7 3.8 9.5s5.4 4.2 8.6 4.2m1-41.7c5.7 0 10.6 2 14.7 6 4 4 6.1 9.2 6.1 15.6 0 6.6-2 12-6 16.4-4 4.3-9 6.5-14.8 6.5-5.5 0-10-2-13.4-6.1v19.1c0 1 .3 1.7 1 2.3a12.6 12.6 0 0 0 1.7 1.5c.6.4.9.8.9 1.2v.3c0 .7-.6 1.1-1.8 1.1h-11.2c-1.3 0-1.9-.4-1.9-1.1v-.3c0-.3.2-.7.5-1l1.2-.9c.4-.2.7-.6 1.1-1.1.4-.5.6-1.2.6-2V41.7c0-1-.6-2-1.9-3-1.2-.8-1.8-1.5-1.8-2v-.2c0-.7.5-1.3 1.5-1.6l6.5-3.1c1.7-.8 2.5-.4 2.5 1.2v6c1.3-2.3 3.3-4.1 5.9-5.5 2.6-1.3 5.4-2 8.6-2"/><path fill="#FFF" d="M467.6 34.6c-2.7 0-5.1 1-7.3 2.8a10.7 10.7 0 0 0-3.7 6.8v15.2c0 3.4 1.3 6.5 3.7 9.2a11 11 0 0 0 8.3 4.1c4 0 7.3-1.6 9.7-4.7a21 21 0 0 0 3.7-12.8c0-6-1.4-11-4-14.9a12.2 12.2 0 0 0-10.4-5.7m1 38.9c-3.3 0-6.3-1.5-8.9-4.4a14.3 14.3 0 0 1-3.9-9.7V44c.4-2.8 1.8-5.2 4-7.2 2.3-2 4.9-3 7.8-3 4.5 0 8.2 2 11 6 2.7 4 4.1 9 4.1 15.3 0 5.5-1.3 10-3.8 13.3-2.6 3.3-6 5-10.3 5M454 31.8c-.3 0-.7 0-1.2.3l-6.6 3.1c-1.2.5-1.2 1-1.2 1.3v.3s.1.6 1.7 1.7c1.3.9 2 2 2 3.2V89c0 .9-.3 1.6-.7 2.2-.4.6-.8 1-1.2 1.3a7 7 0 0 0-1 .8c-.4.2-.5.5-.5.7v.3c0 .2 0 .8 1.5.8H458c1.4 0 1.4-.6 1.4-.8V94c0-.3-.3-.6-.7-.9a13 13 0 0 1-1.8-1.5c-.7-.7-1-1.5-1-2.6V68.7l.6.8c3.3 4 7.7 6 13.1 6a19 19 0 0 0 14.5-6.4c4-4.2 6-9.7 6-16a21 21 0 0 0-6-15.4 20 20 0 0 0-23-4 14.1 14.1 0 0 0-5.7 5.4l-.8 1.2.2-7.3c0-.4-.1-1-.4-1.1a.7.7 0 0 0-.4-.1m4 64h-11.2c-1.9 0-2.3-1-2.3-1.6v-.3c0-.5.2-.9.7-1.3a7.7 7.7 0 0 1 1.2-.9 3.2 3.2 0 0 0 1.5-2.8V41.7c0-1-.6-1.8-1.7-2.6-1.3-1-2-1.7-2-2.3v-.3c0-.9.6-1.6 1.7-2l6.5-3c1-.5 1.9-.6 2.4-.3s.7 1 .7 1.8v4.6c1.3-1.9 3.1-3.4 5.3-4.5 2.6-1.4 5.6-2 8.8-2a21 21 0 0 1 15 6c4.1 4.1 6.2 9.5 6.2 16s-2 12.1-6.1 16.5a19.6 19.6 0 0 1-15 6.7 17 17 0 0 1-13-5.5V89c0 .9.2 1.5.7 2a12.3 12.3 0 0 0 1.7 1.5c.7.5 1 1 1 1.5v.3c0 .6-.2 1.5-2.1 1.5"/><path fill="#FFF" d="M467.6 34.5c-2.7 0-5.2 1-7.3 2.9a10.8 10.8 0 0 0-3.8 6.8v15.2c0 3.4 1.3 6.6 3.7 9.3a11 11 0 0 0 8.4 4c4 0 7.3-1.5 9.7-4.6 2.5-3.2 3.8-7.5 3.8-13 0-6-1.4-11-4-14.8a12.3 12.3 0 0 0-10.5-5.8m1 38.9c-3.3 0-6.3-1.5-8.8-4.3a14.2 14.2 0 0 1-3.9-9.7V44c.4-2.8 1.7-5.2 4-7.2 2.2-2 4.8-3 7.7-3 4.5 0 8.1 2 10.9 6 2.7 4 4.1 9 4.1 15.3 0 5.5-1.3 10-3.8 13.2-2.5 3.3-6 5-10.2 5M454 31.7c-.3 0-.8 0-1.3.3l-6.5 3.1c-.9.4-1.3.8-1.3 1.4v.3c0 .1.2.6 1.7 1.7 1.3 1 2 2 2 3.2V89a4 4 0 0 1-1.9 3.4 7 7 0 0 0-1 .8c-.4.3-.5.5-.5.8v.3c0 .2 0 .9 1.6.9H458c1.5 0 1.5-.7 1.5-1V94c0-.3-.3-.6-.8-1a13 13 0 0 1-1.8-1.5c-.6-.6-1-1.4-1-2.5V69l.6.7c3.3 4 7.7 6 13.1 6a19 19 0 0 0 14.6-6.4c4-4.3 6-9.7 6-16.2 0-6.3-2.1-11.4-6.1-15.4a20 20 0 0 0-23-4 14.4 14.4 0 0 0-5.8 5.4l-.6 1 .2-7c0-.6-.2-1-.5-1.2a.8.8 0 0 0-.4-.1m4 64h-11.2c-1.8 0-2.2-.9-2.2-1.5V94c0-.4.2-.8.7-1.2.3-.4.7-.7 1.1-.9.4-.2.7-.6 1-1 .4-.6.6-1.2.6-1.9V41.7c0-1-.6-1.9-1.7-2.7-1.3-1-2-1.7-2-2.2v-.3c0-.9.6-1.5 1.7-1.9l6.5-3c1-.5 1.7-.6 2.2-.3.5.3.7.9.7 1.7v5c1.3-2 3.2-3.5 5.5-4.7a18 18 0 0 1 8.7-2c5.8 0 10.8 2 14.9 6s6.2 9.4 6.2 15.8c0 6.6-2 12.2-6.1 16.6-4 4.4-9 6.6-15 6.6-5.3 0-9.7-1.9-13-5.6V89c0 1 .2 1.6.7 2.1l1.8 1.5c.6.4 1 .9 1 1.4v.3c0 .6-.4 1.4-2.1 1.4"/><path fill="#FFF" d="M467.6 35c-2.6 0-5 .8-7 2.6-2.1 1.9-3.4 4-3.7 6.6v15.2a13 13 0 0 0 3.6 9c2.4 2.7 5 4 8 4 4 0 7.2-1.5 9.5-4.6 2.4-3 3.7-7.3 3.7-12.6 0-6-1.4-11-4-14.7a12 12 0 0 0-10.1-5.6zm1 38.7a12 12 0 0 1-9.1-4.4c-2.6-2.9-4-6.2-4-10V44.2c.4-3 1.8-5.4 4.1-7.4 2.4-2 5-3.1 8-3.1 4.6 0 8.4 2 11.2 6.1 2.8 4 4.2 9.2 4.2 15.5 0 5.6-1.3 10-3.9 13.4a12.7 12.7 0 0 1-10.5 5.1zm-23.3-37s0 .5 1.5 1.5c1.4 1 2.1 2.2 2.1 3.5V89a4 4 0 0 1-.6 2.4c-.4.6-.9 1-1.4 1.3l-1 .8c-.1.1-.3.3-.3.5v.3c0 .1 0 .5 1.2.5H458c1 0 1-.4 1-.5V94c0-.2-.1-.4-.5-.6a13.4 13.4 0 0 1-1.8-1.6 3.8 3.8 0 0 1-1.1-2.8V68l1.2 1.5a16 16 0 0 0 12.8 5.9 19 19 0 0 0 14.3-6.4c3.9-4.2 5.8-9.5 5.8-15.9 0-6.2-2-11.3-5.9-15.1a19.7 19.7 0 0 0-22.5-3.9 14 14 0 0 0-5.7 5.2l-1.3 2.2.2-8.4c0-.7-.2-.9-.3-.9-.1 0-.4-.1-1.3.3l-6.5 3c-1 .4-1 .8-1 1v.4zM458 96h-11.2c-2.2 0-2.6-1.1-2.6-1.8v-.3c0-.5.3-1 .8-1.5a8 8 0 0 1 1.2-1c.3-.1.6-.4 1-.9.2-.4.4-1 .4-1.6V41.7c0-.9-.5-1.7-1.6-2.4-1.4-1-2-1.8-2-2.5v-.3c0-.7.3-1.7 1.8-2.2l6.5-3.1c1.2-.6 2-.6 2.7-.2.5.3.8 1 .8 2v3.7c1.3-1.5 3-2.9 4.9-3.9a21 21 0 0 1 24 4.1c4.3 4.2 6.4 9.6 6.4 16.1a24 24 0 0 1-6.2 16.8 20 20 0 0 1-15.3 6.8c-5 0-9.3-1.7-12.7-5v17.3c0 .8.2 1.4.7 1.9l1.7 1.4c.8.5 1.1 1 1.1 1.7v.3c0 .5-.2 1.8-2.4 1.8zm56.9-61.7c-3.6 0-6.6 1.5-8.8 4.6-2.2 3-3.4 7-3.4 11.6 0 1.7.2 3.3.4 4.5l20.2-7.1c1.5-.6 2.2-1.6 2.2-3.1 0-2.3-1-4.6-3.1-7a9.6 9.6 0 0 0-7.5-3.5m16.8 28.2c.4-.7 1-1 1.7-.8.7.2 1 .7.9 1.5-.7 3.1-2.6 6-5.8 8.7a19 19 0 0 1-12.6 4c-6 0-11-2-15-6.2s-6-9.6-6-16.4a21.4 21.4 0 0 1 21.3-21.9c5.2 0 9.3 1.4 12.3 4a12 12 0 0 1 4.6 9.2c0 2.5-1.4 4.3-4.3 5.2l-25 8.1a17 17 0 0 0 5.4 9c2.6 2.2 5.8 3.3 9.5 3.3 6.2 0 10.5-2.6 13-7.7"/><path fill="#FFF" d="M514.9 34.6a10 10 0 0 0-8.5 4.5 19 19 0 0 0-3.3 11.4c0 1.5.1 2.9.3 4l19.8-7c1.3-.5 1.9-1.4 1.9-2.7 0-2.2-1-4.4-3-6.7a9.3 9.3 0 0 0-7.2-3.5zm-12.1 21V55c-.3-1.3-.5-2.8-.5-4.6 0-4.7 1.2-8.7 3.5-11.8a10.6 10.6 0 0 1 16.9-1.1c2 2.4 3.2 4.8 3.2 7.2 0 1.6-.8 2.8-2.4 3.4l-20.7 7.3zm13.4-23.8a20.9 20.9 0 0 0-21 21.5c0 6.7 2 12 6 16.1 3.9 4 8.8 6.1 14.7 6.1 5 0 9.2-1.3 12.3-3.9 3.1-2.6 5-5.4 5.7-8.5.1-.7-.2-1-.6-1-.6-.1-1 0-1.3.6-2.5 5.2-7 8-13.3 8-3.8 0-7-1.2-9.7-3.4a17.4 17.4 0 0 1-5.6-9.3l-.1-.3 25.4-8.2c2.7-1 4-2.5 4-5 0-3.2-1.5-6.1-4.4-8.8-3-2.6-7-4-12-4zm-.3 44.5c-6 0-11.2-2.1-15.3-6.3a23 23 0 0 1-6.1-16.7c0-6.3 2-11.6 6.2-15.9a21 21 0 0 1 15.5-6.4c5.2 0 9.5 1.4 12.6 4.2 3.1 2.7 4.7 6 4.7 9.4 0 2.7-1.5 4.6-4.5 5.6l-24.8 8c1 3.6 2.8 6.4 5.3 8.5 2.5 2 5.6 3.2 9.2 3.2 6 0 10.3-2.6 12.6-7.6.5-.8 1.3-1.1 2.2-1 .5.2 1.4.6 1.2 2-.7 3.2-2.7 6.2-6 9a19.5 19.5 0 0 1-12.8 4z"/><path fill="#FFF" d="M514.9 34.5c-3.5 0-6.4 1.6-8.6 4.6a19 19 0 0 0-3.3 11.4c0 1.6.1 3 .3 4.1l20-7a3 3 0 0 0 1.9-2.8c0-2.2-1-4.5-3-6.8a9.4 9.4 0 0 0-7.3-3.5zm-12 20.9V55c-.3-1.3-.5-2.8-.5-4.6 0-4.7 1.2-8.7 3.5-11.8 2.2-3.1 5.3-4.7 9-4.7 3 0 5.5 1.2 7.7 3.6a11 11 0 0 1 3.2 7.2c0 1.6-.8 2.7-2.4 3.3L503 55.4zm13.3-23.7c-5.9 0-11 2-15 6.2-4 4-6 9.3-6 15.4 0 6.7 2 12.1 5.9 16.2 4 4 8.9 6.1 14.8 6.1 5 0 9.3-1.3 12.4-3.9a16 16 0 0 0 5.7-8.6c.1-.8-.3-1-.7-1-.6-.2-1 0-1.4.5-2.5 5.3-6.9 8-13.2 8-3.8 0-7-1.2-9.7-3.4a17.3 17.3 0 0 1-5.5-9.2l-.1-.2 25.3-8.2c2.8-1 4.1-2.6 4.1-5a12 12 0 0 0-4.5-9c-3-2.6-7-3.9-12-3.9zm-.3 44.5c-6 0-11.2-2.1-15.2-6.3a23 23 0 0 1-6.1-16.6 21.4 21.4 0 0 1 21.6-22.2 18 18 0 0 1 12.5 4.2c3.1 2.7 4.7 5.8 4.7 9.3 0 2.7-1.5 4.5-4.5 5.5l-24.8 8c1 3.7 2.8 6.6 5.3 8.7 2.6 2 5.7 3.1 9.3 3.1 6 0 10.3-2.5 12.7-7.5.5-.8 1.2-1.1 2-1 .9.2 1.3.9 1.2 1.8-.7 3.2-2.7 6.2-6 9-3.2 2.6-7.5 4-12.7 4z"/><path fill="#FFF" d="M514.9 35a9.8 9.8 0 0 0-8.3 4.3 19 19 0 0 0-3.2 11.2c0 1.3 0 2.6.2 3.6l19.5-6.8c1.2-.5 1.7-1.3 1.7-2.5 0-2.1-1-4.3-3-6.5a9 9 0 0 0-7-3.4zm-12.3 20.9-.2-.8a25 25 0 0 1-.3-4.6 20 20 0 0 1 3.4-12 11 11 0 0 1 9.4-4.9c3 0 5.8 1.3 8 3.8s3.3 5 3.3 7.4c0 1.7-1 3-2.6 3.7l-21 7.4zM516.2 32a20 20 0 0 0-14.7 6c-4 4-6 9.2-6 15.2 0 6.6 2 12 5.9 16 3.8 4 8.7 6 14.5 6 5 0 9-1.3 12.1-3.9 3.1-2.5 5-5.4 5.6-8.3.1-.6-.1-.7-.4-.7-.4-.1-.7 0-1 .4-2.5 5.4-7 8-13.5 8-3.8 0-7.2-1-10-3.3a17.7 17.7 0 0 1-5.6-9.4l-.2-.6 25.7-8.3c2.6-.9 3.8-2.3 3.8-4.6 0-3.2-1.4-6-4.3-8.6-3-2.6-7-4-11.9-4zm-.3 44.5c-6.2 0-11.4-2.2-15.5-6.4-4.1-4.3-6.2-10-6.2-16.9 0-6.4 2.1-11.8 6.3-16a21 21 0 0 1 15.7-6.6c5.3 0 9.6 1.5 12.8 4.3 3.2 2.8 4.8 6 4.8 9.6 0 2.8-1.6 4.8-4.7 5.9l-24.5 7.9a16 16 0 0 0 5 8c2.5 2.1 5.6 3.2 9 3.2 6 0 10.2-2.5 12.4-7.4.7-1 1.5-1.3 2.5-1.1 1 .2 1.6 1 1.4 2.2-.7 3.3-2.7 6.4-6 9.1a19.8 19.8 0 0 1-13 4.2zm44.8-45.2a9 9 0 0 1 6.2 2c1.4 1.3 2.2 3 2.2 4.9 0 2.8-1.2 4.2-3.6 4.2-1 0-1.9-.4-2.5-1-.6-.7-1-1.4-1.2-2.2-.2-.7-.7-1.4-1.4-2.1-.7-.7-1.7-1-3-1-2.4 0-4.3 1.2-5.7 3.5-1.3 2.4-2 5.3-2 8.8v20.3c0 1.2.6 2.2 1.9 3 1.3.8 1.9 1.4 1.9 1.8v.4c0 .7-.6 1-1.8 1h-11.3c-1.2 0-1.8-.3-1.8-1v-.4c0-.4.6-1 1.7-1.8s1.7-1.8 1.7-3v-27a4 4 0 0 0-1.8-3.3c-1.2-.9-1.8-1.5-1.8-2v-.1c0-.6.4-1.1 1.3-1.6l7-3c1.5-.7 2.3-.3 2.3 1.2V40c2-5.8 6-8.7 11.7-8.7"/><path fill="#FFF" d="m547.9 31.8-1.1.3-7 3c-.7.4-1 .9-1 1.3v.2s0 .4 1.6 1.6c1.3 1 2 2.2 2 3.5v27.1a4 4 0 0 1-1.9 3.3c-1.4 1-1.5 1.4-1.5 1.5v.4c0 .2 0 .7 1.4.7h11.3c1.4 0 1.4-.5 1.4-.7v-.4s0-.4-1.7-1.5c-1.4-.9-2.1-2-2.1-3.3V48.5c0-3.5.7-6.6 2-9 1.5-2.4 3.5-3.7 6-3.7a4.7 4.7 0 0 1 4.9 3.4c.2.7.5 1.4 1.1 2 .5.6 1.2.9 2.2.9 2.2 0 3.2-1.2 3.2-3.8a6 6 0 0 0-2-4.6 8.6 8.6 0 0 0-6-2c-5.6 0-9.4 2.9-11.4 8.6l-.7 2V33c0-.4 0-1-.4-1.1a.7.7 0 0 0-.3 0m3.8 43.5h-11.3c-1.8 0-2.2-.8-2.2-1.4v-.4c0-.6.6-1.2 1.9-2.1 1-.8 1.5-1.6 1.5-2.7v-27c0-1.2-.5-2.1-1.7-3-1.7-1.2-2-1.8-2-2.2v-.2c0-.7.6-1.4 1.6-2l7-3c.9-.4 1.6-.5 2.1-.1.5.3.7.8.7 1.7v5.2c2.3-4.8 6.1-7.2 11.4-7.2 2.7 0 4.9.7 6.4 2a6.7 6.7 0 0 1 2.4 5.3c0 3.7-2.2 4.5-4 4.5-1.2 0-2.1-.3-2.8-1a8 8 0 0 1-1.3-2.4c-.2-.7-.6-1.3-1.3-2a4 4 0 0 0-2.7-.8c-2.3 0-4 1-5.3 3.3a17 17 0 0 0-2 8.6v20.3c0 1 .5 2 1.7 2.7 1.4.9 2 1.5 2 2.1v.4c0 .6-.3 1.4-2.1 1.4"/><path fill="#FFF" d="M547.9 31.7a3 3 0 0 0-1.2.3l-6.9 3c-.7.5-1.2 1-1.2 1.4v.2s.2.5 1.7 1.7c1.3 1 2 2.1 2 3.4v27.1c0 1.3-.6 2.4-1.8 3.2-1.5 1-1.6 1.5-1.6 1.6v.4c0 .2 0 .8 1.5.8h11.3c1.5 0 1.5-.6 1.5-.8v-.4c0-.1-.1-.5-1.8-1.6-1.3-.8-2-2-2-3.2V48.5c0-3.5.7-6.5 2-8.9 1.5-2.4 3.5-3.7 6-3.7a4.6 4.6 0 0 1 4.7 3.4c.2.7.6 1.4 1.1 2a3 3 0 0 0 2.3.9c2.2 0 3.3-1.3 3.3-4a6 6 0 0 0-2.1-4.6 8.7 8.7 0 0 0-6-1.9c-5.6 0-9.5 2.9-11.5 8.5l-.5 1.6V33c0-.6-.2-1-.4-1.2a.8.8 0 0 0-.4 0m3.8 43.5h-11.3c-1.7 0-2-.7-2-1.3v-.4c0-.5.5-1.2 1.7-2 1-.8 1.6-1.7 1.6-2.8v-27c0-1.2-.6-2.2-1.7-3-1.3-1-2-1.7-2-2.2v-.2c0-.7.6-1.3 1.6-1.9l6.9-3c1-.4 1.6-.5 2-.2.5.3.8.9.8 1.7v5.6c2.2-5 6-7.5 11.4-7.5 2.7 0 4.8.7 6.4 2a6.8 6.8 0 0 1 2.3 5.2c0 3-1.3 4.4-4 4.4-1 0-2-.3-2.6-1-.6-.7-1-1.5-1.3-2.3a4 4 0 0 0-1.3-2 4 4 0 0 0-2.8-.9c-2.3 0-4.1 1.1-5.4 3.4a17 17 0 0 0-2 8.6v20.3c0 1.1.6 2 1.7 2.7 1.5 1 2 1.6 2 2.1v.4c0 .6-.3 1.3-2 1.3"/><path fill="#FFF" d="M539 36.6s.2.4 1.6 1.4c1.4 1 2 2.3 2 3.7v27.1a4 4 0 0 1-1.9 3.5c-1.3 1-1.4 1.3-1.4 1.3v.4s0 .4 1.1.4h11.3c.5 0 1.1 0 1.1-.4v-.4s-.2-.4-1.6-1.3c-1.4-.9-2.2-2-2.2-3.5V48.5c0-3.6.7-6.7 2.1-9 1.5-2.6 3.6-4 6.3-4a5 5 0 0 1 5 3.7c.2.6.6 1.3 1.1 1.8.5.5 1.1.8 2 .8 2 0 3-1.1 3-3.5 0-1.8-.8-3.3-2-4.4a8.3 8.3 0 0 0-5.8-1.8c-5.4 0-9.2 2.8-11.1 8.3l-1.3 3.7V33c0-.8-.2-1-.2-1l-1.2.3-7 3c-.5.3-.9.7-.9 1v.2zm12.7 39.1h-11.3c-2.1 0-2.4-1-2.4-1.7v-.4c0-.7.6-1.4 2-2.3a3 3 0 0 0 1.3-2.5v-27c0-1-.5-2-1.5-2.7-1.5-1.1-2.1-1.8-2.1-2.5v-.2c0-.9.6-1.6 1.7-2.2l7-3c1-.5 1.8-.6 2.4-.2.6.4.8 1 .8 2v4a12 12 0 0 1 11.1-6.2c2.8 0 5 .7 6.6 2a7 7 0 0 1 2.5 5.5c0 4-2.4 4.8-4.3 4.8-1.3 0-2.3-.4-3-1.2a5.8 5.8 0 0 1-1.4-2.4c-.1-.6-.5-1.2-1.2-1.8-.6-.5-1.4-.8-2.5-.8-2.2 0-3.8 1-5 3.2-1.4 2.2-2 5-2 8.4v20.3c0 1 .5 1.7 1.6 2.4 1.5 1 2.2 1.7 2.2 2.4v.4c0 .6-.4 1.7-2.5 1.7zm20.8.2c-1.7 0-3-.4-4.1-1.4a4.7 4.7 0 0 1-1.7-3.8c0-1.7.6-3 1.7-4 1-1 2.4-1.5 4.1-1.5a6 6 0 0 1 4.1 1.5 5 5 0 0 1 1.6 4c0 1.6-.5 3-1.6 3.8-1 1-2.4 1.4-4 1.4"/><path fill="#FFF" d="M572.5 65.6c-1.6 0-2.9.5-3.9 1.4-1 .8-1.5 2-1.5 3.7 0 1.5.5 2.7 1.5 3.6 1 .8 2.3 1.3 4 1.3 1.5 0 2.7-.5 3.8-1.3 1-.9 1.5-2 1.5-3.6s-.5-2.9-1.5-3.7c-1-1-2.3-1.4-3.9-1.4m0 10.7c-1.7 0-3.2-.5-4.4-1.5a5.2 5.2 0 0 1-1.8-4.1c0-1.9.6-3.3 1.8-4.3 1.2-1 2.6-1.5 4.4-1.5 1.8 0 3.2.5 4.4 1.5 1.1 1 1.7 2.4 1.7 4.3 0 1.7-.6 3.1-1.7 4.1a6.5 6.5 0 0 1-4.4 1.5"/><path fill="#FFF" d="M572.5 65.5c-1.6 0-3 .5-4 1.4-1 .9-1.5 2.1-1.5 3.8 0 1.5.5 2.8 1.5 3.6a6 6 0 0 0 4 1.3 6 6 0 0 0 4-1.3c1-.8 1.5-2 1.5-3.6 0-1.7-.6-3-1.6-3.8-1-1-2.3-1.4-3.9-1.4m0 10.7c-1.7 0-3.2-.5-4.3-1.4a5 5 0 0 1-1.8-4.1c0-1.8.6-3.2 1.8-4.2 1.1-1 2.6-1.5 4.3-1.5 1.7 0 3.2.5 4.3 1.5 1.2 1 1.7 2.4 1.7 4.2a5 5 0 0 1-1.7 4 6.4 6.4 0 0 1-4.3 1.5"/><path fill="#FFF" d="M572.5 66c-1.5 0-2.7.3-3.7 1.2-1 .8-1.4 2-1.4 3.5 0 1.4.5 2.6 1.4 3.3 1 .9 2.2 1.3 3.7 1.3s2.7-.4 3.7-1.3c.9-.7 1.4-1.9 1.4-3.3 0-1.5-.5-2.7-1.4-3.5-1-.9-2.2-1.3-3.7-1.3m0 10.7A7 7 0 0 1 568 75a5.4 5.4 0 0 1-1.8-4.3c0-2 .6-3.4 1.8-4.5 1.2-1 2.8-1.6 4.6-1.6 1.8 0 3.3.5 4.6 1.6 1.2 1 1.8 2.6 1.8 4.5 0 1.8-.6 3.3-1.8 4.3a6.8 6.8 0 0 1-4.6 1.6m54.9-8c0 1 .3 1.8.9 2.3a11.7 11.7 0 0 0 1.6 1.5c.5.4.7.8.7 1.2v.4c0 .7-.6 1.1-1.9 1.1H618c-1.2 0-1.9-.4-1.9-1.1v-.4c0-.4.6-1 1.7-1.9 1.1-.8 1.7-1.8 1.6-3l-.9-17.8a22 22 0 0 0-3.3-12c-2-2.7-4.6-4-7.9-4-3.3 0-6 1.1-8.1 3.5a12.6 12.6 0 0 0-3.2 8.8v21.6c0 .7.2 1.3.6 1.8.4.5.8 1 1.2 1.1l1.3.9c.3.3.5.7.5 1v.4c0 .7-.6 1.1-1.9 1.1h-11.3c-1.2 0-1.8-.4-1.8-1.1v-.4c0-.5.6-1 1.8-1.9a3.4 3.4 0 0 0 1.7-2.9v-27c0-1.1-.3-2-1-2.6a9.2 9.2 0 0 0-1.8-1.5c-.7-.3-1-.7-1-1.1v-.3c0-.5.5-1 1.5-1.3l6.8-3.2c.8-.4 1.5-.5 1.9-.2.4.3.6.8.6 1.5v6.5a15 15 0 0 1 5.8-6 17 17 0 0 1 8.4-2.2c4.7 0 8.6 1.6 11.8 5 3.2 3.2 5 8.1 5.4 14.7l1 17.5z"/><path fill="#FFF" d="M607.2 34.5c3.4 0 6.2 1.4 8.2 4.2 2 2.8 3.1 6.9 3.4 12.2l.9 17.8c0 1.3-.5 2.4-1.8 3.3-1.4 1.1-1.5 1.5-1.5 1.6v.4c0 .2 0 .7 1.5.7h10.8c1.5 0 1.5-.5 1.5-.7v-.4c0-.3-.2-.6-.6-.9a12 12 0 0 1-1.6-1.5 4 4 0 0 1-1-2.5L626 51c-.4-6.5-2.2-11.3-5.3-14.5-3-3.2-7-4.8-11.5-4.8-3 0-5.8.7-8.2 2.2a14.8 14.8 0 0 0-5.6 5.8l-.8 1.3v-8c0-.6-.1-1-.4-1.2-.4-.3-1 0-1.6.2l-6.8 3.2c-.5.2-1.2.6-1.2 1v.3c0 .3.4.6.8.8l2 1.5c.7.7 1 1.7 1 3v27c0 1.2-.6 2.3-2 3.2-1.4 1-1.5 1.4-1.5 1.5v.4c0 .2 0 .7 1.4.7h11.3c1.6 0 1.6-.5 1.6-.7v-.4c0-.2-.2-.5-.5-.7a8 8 0 0 0-1.2-.8l-1.3-1.2c-.4-.6-.7-1.3-.7-2.1V47.2a13 13 0 0 1 3.3-9.1 11 11 0 0 1 8.4-3.6m21.5 41H618c-1.8 0-2.2-.8-2.2-1.5v-.4c0-.5.5-1.2 1.8-2.2 1-.7 1.5-1.6 1.4-2.7L618 51c-.2-5.2-1.3-9.1-3.2-11.7a8.8 8.8 0 0 0-7.6-4c-3.1 0-5.8 1.2-7.8 3.4s-3.1 5.1-3.1 8.6v21.6c0 .6.2 1.2.5 1.6.4.5.7.8 1.1 1l1.3.9c.5.4.7.8.7 1.3v.4c0 .7-.4 1.5-2.3 1.5h-11.3c-1.8 0-2.2-.8-2.2-1.5v-.4c0-.6.6-1.3 2-2.2 1-.7 1.5-1.5 1.5-2.6v-27c0-1-.2-1.8-.8-2.3a7.3 7.3 0 0 0-1.8-1.4c-.8-.5-1.2-1-1.2-1.5v-.3c0-.7.6-1.3 1.7-1.7l6.8-3.2c1-.5 1.8-.5 2.3-.1.5.4.8 1 .8 1.8v5.1a16.6 16.6 0 0 1 13.8-7.2 16 16 0 0 1 12 5c3.3 3.4 5.1 8.4 5.6 15l1 17.6c0 .9.3 1.6.8 2a11.3 11.3 0 0 0 1.5 1.5c.6.5 1 1 1 1.5v.4c0 .7-.5 1.5-2.4 1.5"/><path fill="#FFF" d="M607.2 34.6c3.4 0 6.1 1.4 8.1 4.2 2 2.7 3.1 6.8 3.4 12.1l.9 17.8c0 1.3-.5 2.4-1.7 3.3-1.4 1-1.6 1.5-1.6 1.6v.4c0 .2 0 .8 1.6.8h10.8c1.6 0 1.6-.6 1.6-.8v-.4c0-.3-.2-.6-.6-1l-1.6-1.5a4 4 0 0 1-1-2.5l-1-17.5c-.4-6.5-2.2-11.4-5.3-14.6-3.1-3.2-7-4.8-11.6-4.8-3 0-5.8.7-8.3 2.2a14.9 14.9 0 0 0-5.6 5.8l-.6 1v-7.6c0-.6-.1-1-.5-1.3-.3-.2-.9-.1-1.6.2l-6.8 3.2c-.9.3-1.3.7-1.3 1.1v.3c0 .3.3.6.8.9l2 1.5c.7.7 1 1.6 1 2.8v27c0 1.3-.6 2.4-1.9 3.2-1.5 1-1.6 1.4-1.6 1.6v.4c0 .2 0 .8 1.5.8h11.3c1.7 0 1.7-.6 1.7-.8v-.4c0-.3-.2-.5-.5-.8a8.2 8.2 0 0 0-1.2-.8c-.5-.3-1-.7-1.3-1.2-.5-.5-.7-1.2-.7-2V47.2c0-3.6 1.1-6.7 3.3-9 2.1-2.4 5-3.6 8.3-3.6m21.5 40.8H618c-1.8 0-2.1-.8-2.1-1.4v-.4c0-.5.5-1.2 1.7-2 1-.9 1.6-1.8 1.5-2.9l-.9-17.8c-.2-5.2-1.3-9.2-3.2-11.8a9 9 0 0 0-7.7-4c-3.2 0-5.8 1.2-7.9 3.4-2 2.3-3 5.2-3 8.7v21.6c0 .7 0 1.2.4 1.7.4.4.8.8 1.2 1l1.2.9c.5.4.7.8.7 1.2v.4c0 .6-.3 1.4-2.2 1.4h-11.3c-1.7 0-2-.8-2-1.4v-.4c0-.6.5-1.2 1.8-2 1.1-.8 1.6-1.7 1.6-2.8v-27c0-1-.2-1.8-.8-2.4-.6-.6-1.3-1-1.9-1.4-.7-.4-1-.9-1-1.4v-.3c0-.7.5-1.2 1.6-1.6l6.7-3.2c1-.4 1.7-.5 2.2-.1.5.3.8.9.8 1.7v5.4a16.5 16.5 0 0 1 13.9-7.4c4.7 0 8.8 1.7 12 5 3.2 3.3 5 8.3 5.5 15l1 17.5c0 .9.3 1.6.8 2.2a11.5 11.5 0 0 0 1.5 1.4c.6.4 1 1 1 1.4v.4c0 .6-.5 1.4-2.3 1.4"/><path fill="#FFF" d="M607.2 34.2a10 10 0 0 1 8.4 4.4 23 23 0 0 1 3.5 12.3l.9 17.8c0 1.4-.6 2.6-1.9 3.6-1.3 1-1.4 1.3-1.4 1.3v.4c0 .1 0 .5 1.2.5h10.8c1.3 0 1.3-.4 1.3-.5v-.4c0-.2-.2-.4-.5-.7a12.5 12.5 0 0 1-1.7-1.5c-.7-.7-1-1.6-1.1-2.7l-1-17.6a22 22 0 0 0-5.2-14.3c-3-3.1-6.9-4.7-11.3-4.7-3 0-5.7.7-8 2.1a14.5 14.5 0 0 0-5.6 5.7l-1.3 2.4v-9.2c0-.5 0-.8-.3-1-.1 0-.4-.1-1.2.3l-6.8 3.2c-1 .3-1.1.6-1.1.7v.3l.6.6a7 7 0 0 1 2 1.5c.8.8 1.2 1.8 1.2 3.1v27c0 1.4-.7 2.6-2 3.5-1.5 1-1.5 1.3-1.5 1.3v.4c0 .1 0 .5 1.1.5h11.3c1.3 0 1.3-.4 1.3-.5v-.4c0-.2-.2-.4-.4-.5a7.8 7.8 0 0 0-1.1-.8c-.5-.3-1-.7-1.4-1.3-.5-.6-.8-1.3-.8-2.2V47.2c0-3.7 1.2-6.9 3.4-9.3 2.2-2.4 5.1-3.7 8.6-3.7m21.5 41.6H618c-2.2 0-2.5-1.1-2.5-1.8v-.4c0-.7.5-1.4 2-2.4.9-.7 1.3-1.5 1.2-2.4l-.9-17.9c-.2-5-1.3-9-3.2-11.6a8.6 8.6 0 0 0-7.3-3.8 10 10 0 0 0-7.6 3.3c-2 2.2-3 5-3 8.4v21.6c0 .6.1 1 .4 1.4l1 1c.5.2 1 .5 1.4.9.5.4.8 1 .8 1.5v.4c0 .7-.3 1.8-2.6 1.8h-11.3c-2.2 0-2.5-1.3-2.5-1.8v-.4c0-.7.7-1.5 2-2.4 1-.7 1.6-1.4 1.6-2.4v-27c0-1-.3-1.6-.8-2.1a11 11 0 0 0-1.8-1.4c-.8-.5-1.3-1-1.3-1.7v-.3c0-.8.7-1.5 2-2l6.7-3.1c1-.6 2-.6 2.6-.1.6.4.9 1 .9 2v4.2a17 17 0 0 1 13.5-6.5c4.8 0 9 1.7 12.3 5 3.2 3.4 5.1 8.5 5.5 15.2l1 17.6c0 .8.3 1.4.8 1.9a11.1 11.1 0 0 0 1.5 1.4c.7.5 1 1 1 1.7v.4c0 .6-.3 1.8-2.6 1.8m25.4-41.5c-3.6 0-6.5 1.5-8.8 4.6-2.2 3-3.3 7-3.3 11.6 0 1.7 0 3.3.3 4.5l20.2-7.1c1.5-.6 2.2-1.6 2.2-3.1 0-2.3-1-4.6-3.1-7a9.6 9.6 0 0 0-7.5-3.5M671 62.5c.4-.7 1-1 1.7-.8.7.2 1 .7 1 1.5a17 17 0 0 1-5.9 8.7 19 19 0 0 1-12.6 4c-6 0-11-2-15-6.2s-6-9.6-6-16.4a21.4 21.4 0 0 1 21.4-21.9c5.1 0 9.2 1.4 12.3 4a12 12 0 0 1 4.5 9.2c0 2.5-1.4 4.3-4.2 5.2L643 58a17 17 0 0 0 5.4 9c2.7 2.2 5.8 3.3 9.5 3.3 6.2 0 10.6-2.6 13-7.7"/><path fill="#FFF" d="M654.1 34.6a10 10 0 0 0-8.5 4.5 19 19 0 0 0-3.2 11.4c0 1.5 0 2.9.2 4l19.8-7c1.3-.5 2-1.4 2-2.7 0-2.2-1-4.4-3.1-6.7a9.3 9.3 0 0 0-7.2-3.5zm-12 21-.2-.5c-.2-1.3-.3-2.8-.3-4.6 0-4.7 1.1-8.7 3.4-11.8 2.3-3.2 5.4-4.8 9.1-4.8 3 0 5.6 1.2 7.8 3.7a11 11 0 0 1 3.2 7.2c0 1.6-.8 2.8-2.4 3.4L642 55.5zm13.4-23.8a20.9 20.9 0 0 0-21 21.5c0 6.7 2 12 5.9 16.1 4 4 8.9 6.1 14.7 6.1 5 0 9.2-1.3 12.4-3.9 3-2.6 5-5.4 5.6-8.5.1-.7-.2-1-.6-1-.5-.1-1 0-1.3.6-2.5 5.2-7 8-13.3 8a15 15 0 0 1-9.7-3.4 17.4 17.4 0 0 1-5.6-9.3l-.1-.3 25.4-8.2c2.7-1 4-2.5 4-5 0-3.2-1.5-6.1-4.4-8.8-3-2.6-7-4-12-4zm-.4 44.5c-6 0-11.2-2.1-15.3-6.3a23 23 0 0 1-6.1-16.7c0-6.3 2.1-11.6 6.3-15.9a21 21 0 0 1 15.5-6.4 18 18 0 0 1 12.5 4.2c3.1 2.7 4.7 6 4.7 9.4 0 2.7-1.5 4.6-4.5 5.6l-24.8 8c1 3.6 2.8 6.5 5.3 8.5s5.6 3.2 9.2 3.2c6.1 0 10.3-2.5 12.6-7.6.6-.8 1.3-1.1 2.2-1 .5.2 1.4.6 1.2 2-.7 3.2-2.7 6.2-6 9a19.5 19.5 0 0 1-12.8 4z"/><path fill="#FFF" d="M654.1 34.5a10 10 0 0 0-8.5 4.6 19 19 0 0 0-3.3 11.4c0 1.6 0 3 .3 4.1l19.8-7c1.4-.5 2-1.5 2-2.8 0-2.2-1-4.5-3-6.8a9.4 9.4 0 0 0-7.3-3.5zm-12 20.9V55c-.3-1.3-.4-2.8-.4-4.6 0-4.7 1.1-8.7 3.4-11.8 2.3-3.1 5.3-4.7 9-4.7 3 0 5.6 1.2 7.7 3.6a11 11 0 0 1 3.2 7.2c0 1.6-.8 2.7-2.3 3.3L642 55.4zm13.4-23.7c-6 0-11 2-15 6.2-4 4-6.1 9.3-6.1 15.4 0 6.7 2 12.1 6 16.2 3.9 4 8.8 6.1 14.7 6.1 5.1 0 9.3-1.3 12.4-3.9 3.2-2.6 5-5.5 5.7-8.6.1-.8-.3-1-.7-1-.6-.2-1 0-1.4.5-2.4 5.3-6.9 8-13.2 8-3.7 0-7-1.2-9.6-3.4a17.3 17.3 0 0 1-5.6-9.2v-.2l25.3-8.2c2.7-1 4-2.6 4-5 0-3.3-1.5-6.3-4.4-9-3-2.6-7-3.9-12.1-3.9zm-.4 44.5c-6 0-11.1-2.1-15.2-6.3a23 23 0 0 1-6.1-16.6 21.4 21.4 0 0 1 21.7-22.2c5.2 0 9.4 1.4 12.4 4.2 3.1 2.7 4.7 5.8 4.7 9.3 0 2.7-1.5 4.5-4.4 5.5l-24.9 8c1 3.7 2.8 6.6 5.3 8.7 2.6 2 5.7 3.1 9.3 3.1 6 0 10.4-2.5 12.7-7.5.5-.8 1.2-1.1 2-1 1 .2 1.3.9 1.2 1.8a17 17 0 0 1-5.9 9c-3.2 2.6-7.5 4-12.8 4z"/><path fill="#FFF" d="M654.1 35a9.8 9.8 0 0 0-8.2 4.3c-2.2 3-3.3 6.7-3.3 11.2 0 1.3.1 2.6.3 3.6l19.4-6.8c1.2-.5 1.7-1.3 1.7-2.5 0-2.1-1-4.3-3-6.5a9 9 0 0 0-6.9-3.4zm-12.3 20.9-.1-.8a25 25 0 0 1-.4-4.6 20 20 0 0 1 3.5-12 11 11 0 0 1 9.3-4.9c3.1 0 5.8 1.3 8 3.8s3.3 5 3.3 7.4c0 1.7-.9 3-2.6 3.7l-21 7.4zM655.5 32a20 20 0 0 0-14.8 6c-4 4-6 9.2-6 15.2 0 6.6 2 12 5.9 16 3.9 4 8.7 6 14.5 6 5 0 9.1-1.3 12.2-3.9 3-2.5 5-5.4 5.5-8.3.1-.6-.1-.7-.3-.7-.5-.1-.8 0-1 .4-2.5 5.4-7.1 8-13.6 8a15 15 0 0 1-9.9-3.3 17.7 17.7 0 0 1-5.7-9.4l-.2-.6 25.8-8.3c2.6-.9 3.8-2.3 3.8-4.6 0-3.2-1.5-6-4.4-8.6-3-2.6-6.9-4-11.8-4zm-.4 44.5a21 21 0 0 1-15.5-6.4c-4.1-4.3-6.2-10-6.2-16.9 0-6.4 2.1-11.8 6.4-16a21 21 0 0 1 15.7-6.6c5.3 0 9.5 1.5 12.7 4.3 3.2 2.8 4.8 6 4.8 9.6 0 2.8-1.6 4.8-4.7 5.9l-24.5 7.9a16 16 0 0 0 5 8 14 14 0 0 0 9.1 3.2c6 0 10-2.5 12.4-7.4.6-1 1.4-1.3 2.4-1.1 1.1.2 1.6 1 1.5 2.2-.7 3.3-2.8 6.4-6 9.1a19.8 19.8 0 0 1-13 4.2zm38.6-.7a11 11 0 0 1-8.5-3.4c-2.1-2.3-3.2-5.6-3.2-10V35.9h-6c-.9 0-1.3-.5-1.3-1.4v-.9c0-.9.4-1.3 1.3-1.3h3.3c4.1 0 6.4-2.8 6.9-8.5.1-1.1.6-1.7 1.5-1.7h1c1 0 1.4.6 1.4 1.7v8.5h12.6c.4 0 .7.1 1 .4.2.3.4.6.4 1v.8c0 1-.5 1.4-1.4 1.4h-12.5v26.7a9 9 0 0 0 1.5 5.5 5 5 0 0 0 4.2 2 7 7 0 0 0 4.7-1.5c1.1-1 1.8-2.3 2-3.9.3-.7.8-1 1.6-1 .7.2 1.1.6 1.1 1.4 0 2.9-1 5.4-3.2 7.6-2.1 2.1-5 3.2-8.4 3.2"/><path fill="#FFF" d="M676 32.7c-.6 0-1 .3-1 1v.8c0 .7.4 1 1 1h6.4v27c0 4.3 1 7.5 3 9.7 2 2.2 4.8 3.4 8.3 3.4 3.3 0 6-1.1 8.1-3.2 2-2 3.1-4.5 3.1-7.3 0-.6-.2-.9-.8-1-.5 0-.9.2-1.1.7a6 6 0 0 1-2.2 4 7.5 7.5 0 0 1-4.9 1.6c-1.9 0-3.4-.7-4.5-2a9.1 9.1 0 0 1-1.6-5.8V35.5h12.9c.7 0 1-.3 1-1v-.9a.9.9 0 0 0-.3-.6 1 1 0 0 0-.7-.3h-12.9v-8.9c0-1.2-.6-1.4-1.2-1.4h-.9c-.4 0-1 .2-1.1 1.5-.5 5.8-3 8.8-7.3 8.8H676zm17.7 43.6c-3.7 0-6.7-1.2-8.8-3.5-2.2-2.4-3.3-5.8-3.3-10.3V36.2H676c-1 0-1.7-.6-1.7-1.7v-.9c0-1 .6-1.7 1.7-1.7h3.3c4 0 6-2.6 6.5-8 .2-1.8 1.2-2.2 2-2.2h.8c.7 0 1.9.3 1.9 2.1V32h12.2c.5 0 .9.2 1.2.5.4.4.5.8.5 1.2v1c0 1-.6 1.6-1.7 1.6h-12.1v26.4c0 2.3.5 4 1.4 5.3 1 1.2 2.3 1.8 3.9 1.8 1.8 0 3.3-.5 4.4-1.4 1.1-1 1.8-2.1 2-3.6v-.1c.3-1 1-1.3 2-1.2.9.1 1.4.7 1.4 1.7 0 3-1.1 5.6-3.3 7.8a11.7 11.7 0 0 1-8.7 3.4z"/><path fill="#FFF" d="M676 32.6c-.7 0-1 .3-1 1v1c0 .7.3 1 1 1h6.3v26.9c0 4.3 1 7.6 3 9.8a11 11 0 0 0 8.4 3.3c3.4 0 6.1-1 8.2-3.1 2-2.1 3.1-4.6 3.1-7.4 0-.7-.2-1-.8-1-.6-.1-1 .1-1.3.7a6 6 0 0 1-2.1 4 7.4 7.4 0 0 1-4.9 1.5c-1.8 0-3.3-.7-4.4-2a9 9 0 0 1-1.6-5.7v-27h12.8c.7 0 1-.3 1-1v-1a1 1 0 0 0-.3-.7 1 1 0 0 0-.7-.3h-12.8v-8.8c0-1.3-.7-1.5-1.3-1.5h-.9c-.4 0-1 .2-1.2 1.6-.5 5.8-3 8.7-7.2 8.7H676zm17.7 43.6c-3.7 0-6.6-1.2-8.8-3.5-2-2.3-3.2-5.8-3.2-10.2V36H676c-1 0-1.6-.5-1.6-1.6v-.9c0-1 .6-1.6 1.6-1.6h3.3c4 0 6.1-2.7 6.6-8.2.2-1.7 1.1-2 1.8-2h1c.7 0 1.7.3 1.7 2V32h12.3a1.6 1.6 0 0 1 1.2.5c.3.3.4.7.4 1.1v1c0 1-.5 1.5-1.6 1.5h-12.2v26.5c0 2.3.5 4 1.5 5.3 1 1.3 2.2 1.9 3.9 1.9a7 7 0 0 0 4.5-1.4 7 7 0 0 0 2-3.7v-.1c.3-.8 1-1.2 1.8-1.1 1 .1 1.4.7 1.4 1.6 0 3-1.1 5.6-3.3 7.8-2.2 2.2-5 3.3-8.6 3.3z"/><path fill="#FFF" d="M676 33c-.5 0-.6.1-.6.6v1c0 .5.1.6.6.6h6.7v27.3c0 4.2 1 7.4 3 9.6 1.9 2 4.6 3.2 8 3.2 3.3 0 6-1 8-3 2-2.1 3-4.5 3-7.2 0-.5-.2-.6-.6-.7-.4 0-.7.1-.8.5-.3 1.7-1 3.1-2.3 4.2-1.3 1-3 1.6-5.1 1.6-2 0-3.5-.7-4.7-2.2a9.4 9.4 0 0 1-1.7-6V35.3h13.2c.5 0 .7-.1.7-.7v-.9a.6.6 0 0 0-.2-.4.6.6 0 0 0-.5-.2h-13.2V24c0-1.2-.5-1.2-.9-1.2h-.9c-.2 0-.7 0-.8 1.2-.5 6-3 9-7.6 9H676zm17.7 43.6c-3.8 0-6.8-1.2-9-3.7-2.2-2.4-3.3-5.9-3.3-10.4v-26H676c-1.2 0-2-.7-2-2v-.9c0-1.2.8-2 2-2h3.3c3.7 0 5.8-2.5 6.2-7.8.2-2 1.5-2.4 2.2-2.4h1c.6 0 2 .2 2 2.4l.2 7.8h11.8c.5 0 1 .2 1.4.6.4.4.6.9.6 1.4v1c0 1.2-.7 2-2 2h-11.8v26c0 2.2.4 4 1.4 5 .9 1.2 2 1.8 3.6 1.8 1.8 0 3.2-.5 4.2-1.3a5 5 0 0 0 1.8-3.5c.5-1.1 1.3-1.6 2.4-1.5 1 .1 1.7.9 1.7 2 0 3-1.1 5.8-3.4 8a12 12 0 0 1-8.9 3.5z"/></g></svg>