<svg xmlns="http://www.w3.org/2000/svg" xmlns:xlink="http://www.w3.org/1999/xlink" viewBox="0 0 410 368"><defs><path id="a" d="M0 0h410v368H0z"/><path id="c" d="M.2 0h368.1v339H.2z"/><path id="e" d="M0 0h368.4v367.7H0z"/></defs><g fill="none" fill-rule="evenodd"><mask id="b" fill="#fff"><use xlink:href="#a"/></mask><g mask="url(#b)" opacity=".1"><g transform="translate(42 29)"><mask id="d" fill="#fff"><use xlink:href="#c"/></mask><path stroke="#F297CD" stroke-width="4" d="M160.3 70c-47.5 63.6-118.6 140.6-135 186.6C18 277.6-2.3 341.7.6 368.2h80.8c-4.4-10-6.3-54.3-3.7-66.2 7.4-34.3 15.3-42.8 34.6-59.3 10.6-9 27-17.5 42-20.1 16.3-2.8 89.3-10.2 110.2-13.2 36.2-5.3 65.5-23.3 77.4-36.9 12-13.6 22.6-31.5 25.6-58.7 4.7-42.8-8.7-69.6-25.3-84A110 110 0 0 0 269.4.2c-39-1.4-76 25.6-109 69.8z" mask="url(#d)"/></g><mask id="f" fill="#fff"><use xlink:href="#e"/></mask><path fill="#4361EE" d="M160.2 70c-47.6 63.6-118.6 140.5-135 186.4-7.5 21-27.8 85-25 111.5h81c-4.5-10-6.3-54.3-3.8-66.2 7.4-34.3 15.3-42.7 34.6-59.2 10.6-9 27-17.5 42.1-20 16.3-2.8 89.4-10.2 110.3-13.3C300.5 204 330 186 342 172.4c12-13.5 22.5-31.4 25.5-58.6 4.7-42.8-8.7-69.5-25.2-83.8A110.2 110.2 0 0 0 269.4.2C230.4-1 193.3 25.8 160.2 70" mask="url(#f)"/><path fill="#FFF" d="M299.2 21.5c-33.1 19.6-30 45.7-15.6 64.1 13.2 13.7 45 24.8 69.3-8.8 7.4 24.8 1.2 65.7-24.8 86.3-22.1 25.1-91.2 31-120.7-1.1-29-29-31-81.2-6.8-111 20-32.1 59.6-40.8 98.6-29.5"/><path fill="#000" d="M356.4 93.9s-.3-28.5-22.3-50c-24.3-23.9-48.4-25.7-48.4-25.7s-20 8.6-29.5 23.7c-8 12.5-15.7 45.1 8.7 69 27 26.6 55.9 15 69.2 6 14.8-10 22.3-23 22.3-23"/></g></g></svg>