<svg xmlns="http://www.w3.org/2000/svg" xmlns:xlink="http://www.w3.org/1999/xlink" viewBox="0 0 202 701"><defs><path id="a" d="M0 0h202v701H0z"/><path id="c" d="M27 1.3c-5.6 1-11 3.6-15.2 7.7a30.8 30.8 0 0 0-1.8 1.9 38 38 0 0 0-8.5 19.4A46.4 46.4 0 0 0 1 40.9a48.7 48.7 0 0 0 .6 4.2 52 52 0 0 0 21 33.5c2.5 1.7 6.7 3.7 11.7 5.3a83 83 0 0 0 25.9 4.4 33 33 0 0 0 11.7-1.9c5-1.9 8.6-5.3 9.7-10.8a25 25 0 0 0-3-15.3 119 119 0 0 0-2.3-4.3l-9.6-18c-2.5-4.9-5-9.7-7.6-14.4A53.9 53.9 0 0 0 46.3 5.8 24.7 24.7 0 0 0 43.7 4 23.3 23.3 0 0 0 27 1.3"/><path id="e" d="M0 .3h185.3V701H0z"/><path id="g" d="M15.3.6C10.8 1 6.5 3.3 3.7 7a16.3 16.3 0 0 0-3.2 6.7A16.4 16.4 0 0 0 .9 22a16.2 16.2 0 0 0 5.6 8 17 17 0 0 0 12.9 3.3 16.5 16.5 0 0 0 10.3-6 16.3 16.3 0 0 0 1.7-2.7 16.2 16.2 0 0 0 1.8-6.5 16.5 16.5 0 0 0-1.7-8.2A16.5 16.5 0 0 0 27 4.1a16.7 16.7 0 0 0-4.7-2.6 16.6 16.6 0 0 0-5.5-1l-1.4.1"/><path id="i" d="M74.2 5.5a135.6 135.6 0 0 0-37.6 19.9A98.8 98.8 0 0 0 22 38.7a91 91 0 0 0-11.5 15.9 80 80 0 0 0-9.2 25.3c-3.9 22 2.7 47 18.6 62.3a47.2 47.2 0 0 0 40.9 12.7 38 38 0 0 0 21-11c4.8-5 7.6-11.5 9.2-18.5 3.7-15.4 2.9-33.6 13.4-44 9.3-9.4 28.6-9.1 38.5-17.8a31.4 31.4 0 0 0 9.5-31.7c-2.2-7.7-7-14.7-13.4-20.1-6.3-5.4-14-9.2-21.7-10.4a86.8 86.8 0 0 0-13-1c-10.7 0-20.8 2-30.1 5"/><path id="k" d="M33 41.2a83.4 83.4 0 0 1-11.5 55.5c-4 6.4-8.8 12.5-14.2 18.1a81.4 81.4 0 0 0-1.5 1.6 33 33 0 0 0-3.7 4.7 10.9 10.9 0 0 0-1.9 8.2c.2 1 .6 2 1.2 3 1.9 3.1 5.2 4 8.4 3.6a12.9 12.9 0 0 0 3.8-1c3.6-1.7 5.9-5.4 8.1-8.6a87.6 87.6 0 0 0 2.7-4A117.4 117.4 0 0 0 41 66c0-2.7 0-5.6-.3-8.7-.8-11.6-3.8-25-8.4-36.6A61.9 61.9 0 0 0 19.8 0 162 162 0 0 1 33 41.2"/></defs><g fill="none" fill-rule="evenodd"><mask id="b" fill="#fff"><use xlink:href="#a"/></mask><g mask="url(#b)" opacity=".1"><g transform="translate(120 422)"><mask id="d" fill="#fff"><use xlink:href="#c"/></mask><path fill="#FF7D00" d="M27 1.3c-5.6 1-11 3.6-15.2 7.7a30.8 30.8 0 0 0-1.8 1.9 38 38 0 0 0-8.5 19.4A46.4 46.4 0 0 0 1 40.9a48.7 48.7 0 0 0 .6 4.2 52 52 0 0 0 21 33.5c2.5 1.7 6.7 3.7 11.7 5.3a83 83 0 0 0 25.9 4.4 33 33 0 0 0 11.7-1.9c5-1.9 8.6-5.3 9.7-10.8a25 25 0 0 0-3-15.3 119 119 0 0 0-2.3-4.3l-9.6-18c-2.5-4.9-5-9.7-7.6-14.4A53.9 53.9 0 0 0 46.3 5.8 24.7 24.7 0 0 0 43.7 4 23.3 23.3 0 0 0 27 1.3" mask="url(#d)"/></g><path fill="#F297CD" d="M45 700.5a1 1 0 0 1-.8-.4 292.5 292.5 0 0 1-28.1-50.5 199.5 199.5 0 0 1-13.6-46.4 164.2 164.2 0 0 1 7.7-81.8 268 268 0 0 1 39.4-70.2c16.5-22 35.3-42.6 53.4-62.5a621 621 0 0 0 55-65.9c26.6-38.7 32.3-103.4 15-168.7a287.5 287.5 0 0 0-40-88.8A192 192 0 0 0 64.5 2.5 1 1 0 0 1 64 2a.9.9 0 0 1 0-.7 1 1 0 0 1 .7-.4c.2-.1.5 0 .8 0a194 194 0 0 1 69 63.4 289.2 289.2 0 0 1 40.5 89.5c17.4 65.8 11.6 131-15.2 170.2a641.7 641.7 0 0 1-55.3 66c-36.8 40.6-75 82.4-92.5 132.3C-7.9 578.8 3.2 636.7 46 699a1 1 0 0 1-.4 1.3 1 1 0 0 1-.5.2"/><mask id="f" fill="#fff"><use xlink:href="#e"/></mask><path fill="#F297CD" d="M65 1.2h-.2a.5.5 0 0 0-.3.2.5.5 0 0 0 0 .4A192.5 192.5 0 0 1 133.2 65a288 288 0 0 1 40.2 89c17.3 65.5 11.5 130.2-15 169-15 21.9-34.5 43.3-55.1 66-18.2 20-37 40.6-53.4 62.4a263.6 263.6 0 0 0-39.4 70.2A163.6 163.6 0 0 0 3 603.2c2.5 15 7 30.6 13.6 46.2a292 292 0 0 0 28.1 50.5c.2.2.5.3.8.1a.5.5 0 0 0 .2-.3.5.5 0 0 0 0-.4c-42.8-62.5-54-120.5-34-177.3 17.5-50 55.7-91.8 92.6-132.4a641.4 641.4 0 0 0 55.2-66c26.7-39 32.5-104.1 15.2-169.8a288.8 288.8 0 0 0-40.4-89.3 193.5 193.5 0 0 0-69-63.3.6.6 0 0 0-.2 0M45 701a1.5 1.5 0 0 1-1.1-.6 293 293 0 0 1-28.2-50.6A199.8 199.8 0 0 1 2 603.3a164.6 164.6 0 0 1 7.7-82 265 265 0 0 1 39.5-70.4c16.4-22 35.2-42.5 53.4-62.5 20.6-22.7 40.1-44 55-65.8 26.4-38.7 32.1-103.2 14.9-168.4a287 287 0 0 0-40-88.7c-19.4-28-42.3-49-68.3-62.6a1.4 1.4 0 0 1-.7-.8 1.4 1.4 0 0 1 .1-1.1 1.4 1.4 0 0 1 .9-.7 1.5 1.5 0 0 1 1 .1A194.4 194.4 0 0 1 135 64a289.8 289.8 0 0 1 40.4 89.5c17.5 66 11.6 131.3-15.3 170.6-15 22-34.5 43.4-55.2 66.1-36.9 40.5-75 82.4-92.5 132.1-19.8 56.5-8.7 114.2 33.9 176.5.2.3.3.7.2 1 0 .5-.3.8-.6 1l-.8.2" mask="url(#f)"/><g transform="translate(65 464)"><mask id="h" fill="#fff"><use xlink:href="#g"/></mask><path fill="#FF7D00" d="M15.3.6C10.8 1 6.5 3.3 3.7 7a16.3 16.3 0 0 0-3.2 6.7A16.4 16.4 0 0 0 .9 22a16.2 16.2 0 0 0 5.6 8 17 17 0 0 0 12.9 3.3 16.5 16.5 0 0 0 10.3-6 16.3 16.3 0 0 0 1.7-2.7 16.2 16.2 0 0 0 1.8-6.5 16.5 16.5 0 0 0-1.7-8.2A16.5 16.5 0 0 0 27 4.1a16.7 16.7 0 0 0-4.7-2.6 16.6 16.6 0 0 0-5.5-1l-1.4.1" mask="url(#h)"/></g><g transform="translate(38 513)"><mask id="j" fill="#fff"><use xlink:href="#i"/></mask><path fill="#F297CD" d="M74.2 5.5a135.6 135.6 0 0 0-37.6 19.9A98.8 98.8 0 0 0 22 38.7a91 91 0 0 0-11.5 15.9 80 80 0 0 0-9.2 25.3c-3.9 22 2.7 47 18.6 62.3a47.2 47.2 0 0 0 40.9 12.7 38 38 0 0 0 21-11c4.8-5 7.6-11.5 9.2-18.5 3.7-15.4 2.9-33.6 13.4-44 9.3-9.4 28.6-9.1 38.5-17.8a31.4 31.4 0 0 0 9.5-31.7c-2.2-7.7-7-14.7-13.4-20.1-6.3-5.4-14-9.2-21.7-10.4a86.8 86.8 0 0 0-13-1c-10.7 0-20.8 2-30.1 5" mask="url(#j)"/></g><g transform="translate(120 166)"><mask id="l" fill="#fff"><use xlink:href="#k"/></mask><path fill="#F297CD" d="M33 41.2a83.4 83.4 0 0 1-11.5 55.5c-4 6.4-8.8 12.5-14.2 18.1a81.4 81.4 0 0 0-1.5 1.6 33 33 0 0 0-3.7 4.7 10.9 10.9 0 0 0-1.9 8.2c.2 1 .6 2 1.2 3 1.9 3.1 5.2 4 8.4 3.6a12.9 12.9 0 0 0 3.8-1c3.6-1.7 5.9-5.4 8.1-8.6a87.6 87.6 0 0 0 2.7-4A117.4 117.4 0 0 0 41 66c0-2.7 0-5.6-.3-8.7-.8-11.6-3.8-25-8.4-36.6A61.9 61.9 0 0 0 19.8 0 162 162 0 0 1 33 41.2" mask="url(#l)"/></g></g></g></svg>