<svg xmlns="http://www.w3.org/2000/svg" xmlns:xlink="http://www.w3.org/1999/xlink" viewBox="0 0 263 338"><defs><path id="a" d="M0 0h263v338H0z"/><path id="c" d="M115.8.5A232.8 232.8 0 0 0 35.3 22C21 29 8.4 37.4 0 47a293.1 293.1 0 0 1 72.3-28.6 150.9 150.9 0 0 1 101.3 13.5 189.9 189.9 0 0 1 37.3 25.3c2.9 2.3 5.8 4.4 8.8 6 4.9 2.6 10 3.9 15.2 2.3 1.7-.5 3.5-1.3 5.2-2.6 5.3-3.6 6.4-9.6 5.3-15.3A23 23 0 0 0 243 41c-3.4-6.2-10.2-9.8-16.4-13.5a158.8 158.8 0 0 0-7.4-4.2A212.4 212.4 0 0 0 115.8.5"/><path id="e" d="M1 .4h72.6V326H.9z"/><path id="g" d="M27.8 13.4A52 52 0 0 0 2.3 44.6c-7.5 29.5 14.3 66 26.8 96.5l1.1 2.9c7.6 19.1 12.3 45.6 21 68 6 15.7 14 29.4 26.4 37.2a82.5 82.5 0 0 0 17.9 8.4 97.6 97.6 0 0 0 69.7-4.3 107.6 107.6 0 0 0 28.7-19.5c14-13.2 24.8-29.8 31.5-47.8a133 133 0 0 0 7.3-59c-2-21.2-8.8-42-19.8-60.3a131 131 0 0 0-31-35.6 135.8 135.8 0 0 0-39-20.4A184.9 184.9 0 0 0 83.5.4a111 111 0 0 0-55.6 13"/></defs><g fill="none" fill-rule="evenodd"><mask id="b" fill="#fff"><use xlink:href="#a"/></mask><g mask="url(#b)" opacity=".1"><g transform="translate(-37 14)"><mask id="d" fill="#fff"><use xlink:href="#c"/></mask><path fill="#FF7D00" d="M115.8.5A232.8 232.8 0 0 0 35.3 22C21 29 8.4 37.4 0 47a293.1 293.1 0 0 1 72.3-28.6 150.9 150.9 0 0 1 101.3 13.5 189.9 189.9 0 0 1 37.3 25.3c2.9 2.3 5.8 4.4 8.8 6 4.9 2.6 10 3.9 15.2 2.3 1.7-.5 3.5-1.3 5.2-2.6 5.3-3.6 6.4-9.6 5.3-15.3A23 23 0 0 0 243 41c-3.4-6.2-10.2-9.8-16.4-13.5a158.8 158.8 0 0 0-7.4-4.2A212.4 212.4 0 0 0 115.8.5" mask="url(#d)"/></g><path fill="#FF7D00" d="m193.5 337-2.5-1.4 26.2-46.1c13.8-26 28-53 35-84.9 9.3-42.3 9-84.4-.8-118.4-10.3-35.9-30-60.1-57.1-70.3a1.4 1.4 0 0 1-.9-1.8c.2-.3.4-.6.8-.7a1 1 0 0 1 1 0c28 10.4 48.3 35.3 58.9 72 10 34.5 10.2 77 .8 119.8-7 32.3-21.4 59.4-35.2 85.6l-26.2 46.1z"/><g transform="translate(189 12)"><mask id="f" fill="#fff"><use xlink:href="#e"/></mask><path fill="#FF7D00" d="m3.2 323.3 1 .5L30 278.4c13.8-26.1 28-53.2 35-85.4 9.4-42.7 9.1-85.1-.8-119.5C53.8 37.2 33.6 12.5 6 2.1a.6.6 0 0 0-.5 0 .6.6 0 0 0-.3.3.6.6 0 0 0 0 .5.6.6 0 0 0 .3.2l.2-.3.1-.7-.1.6.2-.5-.1.4.2-.4-.3.6.4-.5-.4.5-.1.4c27.3 10.2 47.2 34.7 57.6 70.7 9.9 34.2 10.2 76.4.8 118.9-7 32-21.3 59-35 85L3.1 323.4zm1.6 2.7L1 324l26.5-47c13.7-26 28-52.8 35-84.6 9.2-42.3 9-84.2-.8-118.1C51.4 38.8 31.7 14.7 5 4.7a2.2 2.2 0 0 1-1.3-1.2 2.2 2.2 0 0 1 0-1.6c.2-.6.6-1 1.2-1.3a2.2 2.2 0 0 1 1.6 0C34.7 11 55.2 36.2 66 73.2c10 34.6 10.3 77.3.8 120.2-7.1 32.4-21.5 59.5-35.3 85.8L4.8 326z" mask="url(#f)"/></g><g transform="translate(-23 60)"><mask id="h" fill="#fff"><use xlink:href="#g"/></mask><path fill="#FF7D00" d="M27.8 13.4A52 52 0 0 0 2.3 44.6c-7.5 29.5 14.3 66 26.8 96.5l1.1 2.9c7.6 19.1 12.3 45.6 21 68 6 15.7 14 29.4 26.4 37.2a82.5 82.5 0 0 0 17.9 8.4 97.6 97.6 0 0 0 69.7-4.3 107.6 107.6 0 0 0 28.7-19.5c14-13.2 24.8-29.8 31.5-47.8a133 133 0 0 0 7.3-59c-2-21.2-8.8-42-19.8-60.3a131 131 0 0 0-31-35.6 135.8 135.8 0 0 0-39-20.4A184.9 184.9 0 0 0 83.5.4a111 111 0 0 0-55.6 13" mask="url(#h)"/></g></g></g></svg>